<svg viewBox="0 0 185 199" xmlns="http://www.w3.org/2000/svg" xmlns:xlink="http://www.w3.org/1999/xlink"><defs><path id="a" d="M0 .29h8.06v17.47H0z"/><path id="c" d="M.18.33h32.77v40H.18z"/></defs><g fill="none" fill-rule="evenodd"><path d="M18.12 45.6c-2.54.54-1.3-4.08.51-3.05.74.42.86 1.67.7 2.42-.12.61-.7.53-1.2.63zm12.85 31.14c.68 1.88 1.16 5.44-1.74 5.52-1.23.04-1.82-1.03-1.97-2.12a4.43 4.43 0 0 1 1.17-3.6c.82-.87 2.05-1.15 2.54.2zM20.92 96.9c-2.22 1.18-4.39-2.19-4.02-4.13.3-1.5 2.37-1.83 3.64-1.84.88-.02 1.77.19 2.52.67.52.33 1.14.83 1.2 1.5.13 1.7-2.08 3.14-3.34 3.8zm-.19-30.73c-.97 1.15-3.43-.73-2.54-1.93.64-.86 2.16-1.43 3.13-.83.98.6-.1 2.2-.59 2.76zm6.48-12.34c-.08 1.98-3.12 2.14-4.36 1.24-1-.71-.58-2.06-.16-3.01.47-1.04 1.64-2.35 2.92-2.2 1.52.17 1.64 2.9 1.6 3.97zm65.2 38.5a22.9 22.9 0 0 1-21.25-14.74 22.97 22.97 0 0 1 6.75-25.5 22.87 22.87 0 0 1 26.04-2.08 22.97 22.97 0 0 1 10.72 24 22.91 22.91 0 0 1-18.76 18.04 22.8 22.8 0 0 1-3.5.27zm-52.28-6.98v-.42l.13-.12-.13.54zm3.64 33.92a69.68 69.68 0 0 0 25.3 15.89 69.73 69.73 0 0 0 29.76 3.73 69.18 69.18 0 0 0 44.73-22.21 69.78 69.78 0 0 0 13.4-21.31 69.8 69.8 0 0 0-13.3-72.75A69.17 69.17 0 0 0 92.42 0a69.06 69.06 0 0 0-34.63 9.25 69.95 69.95 0 0 0-24.98 24.6 21.3 21.3 0 0 1 3.17 11.73 24.34 24.34 0 0 1 9.76 14.3c1.32 5.6.56 11.53-2.04 16.64a24.06 24.06 0 0 1-5.85 7.35 21.33 21.33 0 0 1-7.57 16.83 69.95 69.95 0 0 0 13.5 18.57z" fill="#EBBC60"/><path d="M47.37 119.5a66.61 66.61 0 0 0 44.77 17.38c1.52-2.24 3.14-4.32 3.14-8.77 0-8.35-5.74-8.35-5.74-16.71 0-8.36 5.74-8.36 5.74-16.72v-.23a25 25 0 0 1-27.7-21.99h-.2c-7.64 0-8.29-4.81-14.74-5.63-.7 8.56-5 14.59-9.57 19 0 0-.13 10.14-9.35 16.52a67.56 67.56 0 0 0 13.65 17.16" fill="#F84FAA"/><path d="M150.83 66.71c-8.34 0-8.34 5.76-16.69 5.76-8.34 0-8.34-5.76-16.68-5.76h-.24a25.02 25.02 0 0 1-21.94 27.73v.24c0 8.36-5.74 8.36-5.74 16.72s5.74 8.36 5.74 16.71c0 4.45-1.62 6.53-3.14 8.77h.27c17.94 0 34.81-7 47.5-19.7a66.9 66.9 0 0 0 19.67-47.31c-2.23-1.53-4.3-3.16-8.75-3.16" fill="#6C3C31"/><path d="M67.42 69.6a25.02 25.02 0 0 1 22.12-24.87v-.21c0-8.36 5.74-8.36 5.74-16.72s-5.74-8.36-5.74-16.73c0-4.45 1.63-6.53 3.15-8.77h-.28a66.73 66.73 0 0 0-31.82 8 67.87 67.87 0 0 0-24.2 22.12c1.28 1.34 5.04 5.78 5.35 11.43 0 0 10.65 9.1 10.99 19.52.03 1.2 0 2.35-.1 3.46 6.46.82 7.11 5.64 14.75 5.64h.2c-.1-.95-.16-1.9-.16-2.88" fill="#FFFCE9"/><path d="M139.9 22.01a66.66 66.66 0 0 0-47.2-19.7c-1.52 2.23-3.15 4.31-3.15 8.76 0 8.37 5.74 8.37 5.74 16.73 0 8.36-5.74 8.36-5.74 16.72v.2a25 25 0 0 1 27.68 22h.24c8.34 0 8.34 5.75 16.68 5.75 8.35 0 8.35-5.76 16.7-5.76 4.43 0 6.51 1.63 8.74 3.16v-.28a66.9 66.9 0 0 0-19.67-47.58" fill="#31C9FF"/><path d="M81.96 36.66a1.33 1.33 0 1 1-2.66 0 1.33 1.33 0 0 1 2.66 0" fill="#5822F3"/><path d="M82.8 44.8a1.33 1.33 0 1 1-2.65.01 1.33 1.33 0 0 1 2.65 0" fill="#1CF160"/><path d="M90.21 32.15a1.33 1.33 0 1 1-2.65 0 1.33 1.33 0 0 1 2.65 0" fill="#FFB700"/><path d="M93.74 29.87a1.33 1.33 0 1 1-2.66 0 1.33 1.33 0 0 1 2.66 0" fill="#31C9FF"/><path d="M91.07 36.24a1.33 1.33 0 1 1-2.66 0 1.33 1.33 0 0 1 2.66 0" fill="#1CF160"/><path d="M87.15 37.47a1.33 1.33 0 1 1-2.66 0 1.33 1.33 0 0 1 2.66 0" fill="#F84FAA"/><path d="M82.8 40.92a1.33 1.33 0 1 1-2.65 0 1.33 1.33 0 0 1 2.65 0" fill="#31C9FF"/><path d="M88.62 42.95a1.33 1.33 0 1 1-2.65 0 1.33 1.33 0 0 1 2.65 0" fill="#FFB700"/><path d="M90.87 23.5a1.33 1.33 0 1 1-2.66 0 1.33 1.33 0 0 1 2.66 0" fill="#F22F29"/><path d="M93.58 26.34a1.33 1.33 0 1 1-2.66 0 1.33 1.33 0 0 1 2.66 0" fill="#5822F3"/><path d="M88.3 27.82a1.33 1.33 0 1 1-2.66 0 1.33 1.33 0 0 1 2.66 0" fill="#F84FAA"/><path d="M82.24 21.2a1.33 1.33 0 1 1-2.66 0 1.33 1.33 0 0 1 2.66 0" fill="#1CF160"/><path d="M84.9 11.77a1.33 1.33 0 1 1-2.65 0 1.33 1.33 0 0 1 2.65 0" fill="#31C9FF"/><path d="M88.3 12.48a1.33 1.33 0 1 1-2.66 0 1.33 1.33 0 0 1 2.66 0" fill="#FFB700"/><path d="M87.85 8.52a1.33 1.33 0 1 1-2.65 0 1.33 1.33 0 0 1 2.65 0" fill="#F84FAA"/><path d="M90.1 4.72a1.33 1.33 0 1 1-2.66 0 1.33 1.33 0 0 1 2.66 0" fill="#5822F3"/><path d="M85.42 5.26a1.33 1.33 0 1 1-2.66 0 1.33 1.33 0 0 1 2.66 0" fill="#1CF160"/><path d="M82.47 8.82a1.33 1.33 0 1 1-2.66 0 1.33 1.33 0 0 1 2.66 0" fill="#F84FAA"/><path d="M79.29 5.86a1.33 1.33 0 1 1-2.66 0 1.33 1.33 0 0 1 2.66 0" fill="#31C9FF"/><path d="M90.1 17.52a1.33 1.33 0 1 1-2.66 0 1.33 1.33 0 0 1 2.66 0" fill="#F84FAA"/><path d="M85.19 16.49a1.33 1.33 0 1 1-2.66 0 1.33 1.33 0 0 1 2.66 0" fill="#FFF300"/><path d="M79.85 31.33a1.33 1.33 0 1 1-2.65 0 1.33 1.33 0 0 1 2.65 0" fill="#F84FAA"/><path d="M77.2 34.28a1.33 1.33 0 1 1-2.66 0 1.33 1.33 0 0 1 2.65 0" fill="#1CF160"/><path d="M75.28 30.42a1.33 1.33 0 1 1-2.65 0 1.33 1.33 0 0 1 2.65 0" fill="#FFF300"/><path d="M84.74 33.7a1.33 1.33 0 1 1-2.65 0 1.33 1.33 0 0 1 2.65 0" fill="#1CF160"/><path d="M83.71 29.95a1.33 1.33 0 1 1-2.65 0 1.33 1.33 0 0 1 2.65 0" fill="#31C9FF"/><path d="M79.55 26a1.33 1.33 0 1 1-2.66 0 1.33 1.33 0 0 1 2.66 0m-1.68 12.14a1.33 1.33 0 1 1-2.66 0 1.33 1.33 0 0 1 2.66 0M64.5 15.16a1.33 1.33 0 1 1-2.66 0 1.33 1.33 0 0 1 2.66 0" fill="#FFB700"/><path d="M73.2 32.8a1.33 1.33 0 1 1-2.66 0 1.33 1.33 0 0 1 2.65 0" fill="#31C9FF"/><path d="M73.2 37.21a1.33 1.33 0 1 1-2.66 0 1.33 1.33 0 0 1 2.65 0" fill="#F84FAA"/><path d="M63.4 37.21a1.33 1.33 0 1 1-2.67 0 1.33 1.33 0 0 1 2.66 0" fill="#1CF160"/><path d="M70.71 29.85a1.33 1.33 0 1 1-2.65 0 1.33 1.33 0 0 1 2.65 0" fill="#F22F29"/><path d="M67.96 39.62a1.33 1.33 0 1 1-2.65 0 1.33 1.33 0 0 1 2.65 0" fill="#31C9FF"/><path d="M65.85 32.87a1.33 1.33 0 1 1-2.65 0 1.33 1.33 0 0 1 2.65 0m2.55-15.39a1.33 1.33 0 1 1-2.66 0 1.33 1.33 0 0 1 2.66 0" fill="#FFF300"/><path d="M73.2 46.28a1.33 1.33 0 1 1-2.66 0 1.33 1.33 0 0 1 2.65 0M59.88 16.19a1.33 1.33 0 1 1-2.65 0 1.33 1.33 0 0 1 2.65 0" fill="#F84FAA"/><path d="M72.68 41.9a1.33 1.33 0 1 1-2.66 0 1.33 1.33 0 0 1 2.66 0" fill="#5822F3"/><path d="M74.15 50.93a1.33 1.33 0 1 1-2.66 0 1.33 1.33 0 0 1 2.66 0" fill="#FFB700"/><path d="M69.48 43.38a1.33 1.33 0 1 1-2.65 0 1.33 1.33 0 0 1 2.65 0" fill="#31C9FF"/><path d="M70.23 49.45a1.33 1.33 0 1 1-2.66 0 1.33 1.33 0 0 1 2.66 0" fill="#1CF160"/><path d="M59.63 36.66a1.33 1.33 0 1 1-2.65 0 1.33 1.33 0 0 1 2.65 0" fill="#31C9FF"/><path d="M61.4 32.87a1.33 1.33 0 1 1-2.65 0 1.33 1.33 0 0 1 2.65 0" fill="#F84FAA"/><path d="M55.94 34.35a1.33 1.33 0 1 1-2.66 0 1.33 1.33 0 0 1 2.66 0" fill="#5822F3"/><path d="M53.1 37.21a1.33 1.33 0 1 1-2.66 0 1.33 1.33 0 0 1 2.65 0" fill="#1CF160"/><path d="M49.68 39.15a1.33 1.33 0 1 1-2.65 0 1.33 1.33 0 0 1 2.65 0" fill="#FFB700"/><path d="M47.12 44.28a1.33 1.33 0 1 1-2.66 0 1.33 1.33 0 0 1 2.66 0" fill="#5822F3"/><path d="M55.94 40.42a1.33 1.33 0 1 1-2.66 0 1.33 1.33 0 0 1 2.66 0" fill="#F84FAA"/><path d="M59.93 41.9a1.33 1.33 0 1 1-2.66 0 1.33 1.33 0 0 1 2.66 0" fill="#F22F29"/><path d="M53.1 46.5a1.33 1.33 0 1 1-2.66 0 1.33 1.33 0 0 1 2.65 0" fill="#31C9FF"/><path d="M50 46.71a1.33 1.33 0 1 1-2.66 0 1.33 1.33 0 0 1 2.66 0" fill="#FFB700"/><path d="M43.14 35.34a1.33 1.33 0 1 1-2.66 0 1.33 1.33 0 0 1 2.66 0" fill="#1CF160"/><path d="M57.41 45.38a1.33 1.33 0 1 1-2.66 0 1.33 1.33 0 0 1 2.66 0m-9.66-11.37a1.33 1.33 0 1 1-2.66 0 1.33 1.33 0 0 1 2.66 0" fill="#FFF300"/><path d="M60.44 49.9a1.33 1.33 0 1 1-2.66 0 1.33 1.33 0 0 1 2.66 0" fill="#FFB700"/><path d="M55.94 50.35a1.33 1.33 0 1 1-2.66 0 1.33 1.33 0 0 1 2.66 0" fill="#5822F3"/><path d="M57.88 53.88a1.33 1.33 0 1 1-2.66 0 1.33 1.33 0 0 1 2.66 0" fill="#1CF160"/><path d="M60.45 62.9a1.33 1.33 0 1 1-2.66 0 1.33 1.33 0 0 1 2.66 0" fill="#5822F3"/><path d="M67.76 63.44a1.33 1.33 0 1 1-2.65 0 1.33 1.33 0 0 1 2.65 0" fill="#F22F29"/><path d="M67.28 69.8a1.33 1.33 0 1 1-2.66 0 1.33 1.33 0 0 1 2.66 0" fill="#F84FAA"/><path d="M66.49 57.63a1.33 1.33 0 1 1-2.66 0 1.33 1.33 0 0 1 2.66 0m-9.94 7.81a1.33 1.33 0 1 1-2.66 0 1.33 1.33 0 0 1 2.66 0" fill="#31C9FF"/><path d="M63.83 53.75a1.33 1.33 0 1 1-2.66 0 1.33 1.33 0 0 1 2.66 0" fill="#F84FAA"/><path d="M50.75 42.4a1.33 1.33 0 1 1-2.65 0 1.33 1.33 0 0 1 2.65 0" fill="#F22F29"/><path d="M54.57 54.82a1.33 1.33 0 1 1-2.66 0 1.33 1.33 0 0 1 2.66 0" fill="#FFB700"/><path d="M56.04 61.14a1.33 1.33 0 1 1-2.65 0 1.33 1.33 0 0 1 2.65 0" fill="#F84FAA"/><path d="M60.73 58.19a1.33 1.33 0 1 1-2.66 0 1.33 1.33 0 0 1 2.66 0" fill="#FFF300"/><path d="M62.35 47.02a1.33 1.33 0 1 1-2.65 0 1.33 1.33 0 0 1 2.65 0" fill="#5822F3"/><path d="M63.83 42.33a1.33 1.33 0 1 1-2.66 0 1.33 1.33 0 0 1 2.66 0" fill="#F84FAA"/><path d="M66.29 45.54a1.33 1.33 0 1 1-2.66 0 1.33 1.33 0 0 1 2.66 0" fill="#FFB700"/><path d="M65.85 49.9a1.33 1.33 0 1 1-2.65 0 1.33 1.33 0 0 1 2.65 0" fill="#FFF300"/><path d="M70.3 55.35a1.33 1.33 0 1 1-2.65 0 1.33 1.33 0 0 1 2.65 0" fill="#F22F29"/><path d="M63.83 60.97a1.33 1.33 0 1 1-2.66 0 1.33 1.33 0 0 1 2.66 0" fill="#FFB700"/><path d="M63.83 65.37a1.33 1.33 0 1 1-2.66 0 1.33 1.33 0 0 1 2.66 0" fill="#1CF160"/><path d="M60.88 67.68a1.33 1.33 0 1 1-2.66 0 1.33 1.33 0 0 1 2.66 0" fill="#FFB700"/><path d="M61.39 84.45c-.34 0-.67-.15-.9-.42l-3.95-4.84a1.15 1.15 0 0 1 1.77-1.46l3.96 4.84a1.15 1.15 0 0 1-.88 1.88" fill="#FFF300"/><path d="M60.77 95.82c-.27 0-.55-.1-.76-.3a1.15 1.15 0 0 1-.1-1.62l4.13-4.68a1.15 1.15 0 1 1 1.72 1.52l-4.13 4.69c-.23.25-.55.39-.86.39M42.6 106.93c-.56 0-1.05-.4-1.14-.97l-.98-6.18a1.15 1.15 0 0 1 2.27-.36l.98 6.18a1.15 1.15 0 0 1-1.13 1.33" fill="#31C9FF"/><path d="M63.68 109.23a1.15 1.15 0 0 1-.86-1.91l4.14-4.69a1.15 1.15 0 1 1 1.72 1.53l-4.13 4.68c-.23.26-.55.4-.87.4m-13.95-16.3h-.02a1.15 1.15 0 0 1-1.12-1.18l.16-6.65a1.15 1.15 0 0 1 2.3.06l-.17 6.65a1.15 1.15 0 0 1-1.15 1.12" fill="#FFFCE9"/><path d="M84.53 115.47c-.63 0-1.15-.52-1.15-1.15v-6.67a1.15 1.15 0 0 1 2.3 0v6.67c0 .63-.51 1.15-1.15 1.15" fill="#FFF300"/><path d="M54.46 110.22c-.32 0-.63-.13-.86-.38l-4.16-4.66a1.15 1.15 0 0 1 1.7-1.53l4.17 4.65a1.15 1.15 0 0 1-.85 1.92" fill="#FFF"/><path d="M75.29 124.45a1.15 1.15 0 0 1-.18-2.29l5.76-.9a1.15 1.15 0 1 1 .36 2.27l-5.76.9-.18.02" fill="#31C9FF"/><path d="M85.33 133.27a1.15 1.15 0 0 1-.99-1.73l2.95-5.05a1.15 1.15 0 1 1 1.98 1.16l-2.95 5.05c-.22.36-.6.57-1 .57m-5.69-32.55c-.34 0-.68-.15-.9-.43l-3.9-4.95a1.15 1.15 0 0 1 1.8-1.43l3.9 4.95a1.15 1.15 0 0 1-.9 1.86" fill="#FFFCE9"/><path d="M62.2 127.3h-.1a1.15 1.15 0 0 1-1.04-1.25l.63-6.63a1.15 1.15 0 0 1 2.29.22l-.63 6.62c-.06.6-.56 1.05-1.14 1.05" fill="#FFF300"/><path d="M71.2 14.56a1.33 1.33 0 1 1-2.66 0 1.33 1.33 0 0 1 2.66 0" fill="#1CF160"/><path d="M74.15 12.48a1.33 1.33 0 1 1-2.66 0 1.33 1.33 0 0 1 2.66 0" fill="#FFB700"/><path d="M76.2 16.84a1.33 1.33 0 1 1-2.65 0 1.33 1.33 0 0 1 2.66 0" fill="#FFF300"/><path d="M80.05 11.99a1.33 1.33 0 1 1-2.66 0 1.33 1.33 0 0 1 2.66 0" fill="#5822F3"/><path d="M80.48 17.1a1.33 1.33 0 1 1-2.65 0 1.33 1.33 0 0 1 2.65 0" fill="#31C9FF"/><path d="M83.71 26a1.33 1.33 0 1 1-2.65 0 1.33 1.33 0 0 1 2.65 0" fill="#5822F3"/><path d="M87.15 21.2a1.33 1.33 0 1 1-2.66 0 1.33 1.33 0 0 1 2.66 0" fill="#FFB700"/><path d="M77.1 9.23a1.33 1.33 0 1 1-2.66 0 1.33 1.33 0 0 1 2.66 0" fill="#F84FAA"/><path d="M73.2 8.52a1.33 1.33 0 1 1-2.66 0 1.33 1.33 0 0 1 2.65 0" fill="#F22F29"/><path d="M69.73 9.23a1.33 1.33 0 1 1-2.66 0 1.33 1.33 0 0 1 2.66 0" fill="#31C9FF"/><path d="M66.49 12.19a1.33 1.33 0 1 1-2.66 0 1.33 1.33 0 0 1 2.66 0M78.38 46.5a1.33 1.33 0 1 1-2.66 0 1.33 1.33 0 0 1 2.66 0" fill="#5822F3"/><path d="M77.2 41.9a1.33 1.33 0 1 1-2.66 0 1.33 1.33 0 0 1 2.65 0" fill="#F22F29"/><path d="M69.24 34.35a1.33 1.33 0 1 1-2.66 0 1.33 1.33 0 0 1 2.66 0" fill="#FFB700"/><path d="M74.15 26a1.33 1.33 0 1 1-2.66 0 1.33 1.33 0 0 1 2.66 0m-8.61-.95a1.33 1.33 0 1 1 2.58.6 1.33 1.33 0 0 1-2.58-.6" fill="#5822F3"/><path d="M69.25 23.03a1.33 1.33 0 1 1 2.58.6 1.33 1.33 0 0 1-2.58-.6" fill="#31C9FF"/><path d="M43.8 25.57a1.33 1.33 0 1 1 2.59.6 1.33 1.33 0 0 1-2.59-.6" fill="#F84FAA"/><path d="M47.06 23.3a1.33 1.33 0 1 1 2.59.6 1.33 1.33 0 0 1-2.59-.6m12.1-11.07a1.33 1.33 0 1 1 2.59.6 1.33 1.33 0 0 1-2.59-.6" fill="#1CF160"/><path d="M47.06 27.49a1.33 1.33 0 1 1 2.59.6 1.33 1.33 0 0 1-2.59-.6" fill="#FFF300"/><path d="M70.57 18.87a1.33 1.33 0 1 1 2.6.6 1.33 1.33 0 0 1-2.6-.6" fill="#1CF160"/><path d="M40.15 28.22a1.33 1.33 0 1 1 2.58.6 1.33 1.33 0 0 1-2.58-.6" fill="#31C9FF"/><path d="M42.89 30.83a1.33 1.33 0 1 1 2.58.6 1.33 1.33 0 0 1-2.58-.6m5.51-11.26a1.33 1.33 0 1 1 2.58.6 1.33 1.33 0 0 1-2.59-.6" fill="#FFB700"/><path d="M51.44 27.7a1.33 1.33 0 1 1 2.58.6 1.33 1.33 0 0 1-2.58-.6" fill="#31C9FF"/><path d="M51.62 21.35a1.33 1.33 0 1 1 2.59.6 1.33 1.33 0 0 1-2.59-.6" fill="#F84FAA"/><path d="M59.88 23.28a1.33 1.33 0 1 1 2.58.6 1.33 1.33 0 0 1-2.58-.6" fill="#1CF160"/><path d="M54.52 30.52a1.33 1.33 0 1 1 2.58.6 1.33 1.33 0 0 1-2.58-.6" fill="#F22F29"/><path d="M57.26 20.2a1.33 1.33 0 1 1 2.59.6 1.33 1.33 0 0 1-2.59-.6" fill="#31C9FF"/><path d="M57.79 27.25a1.33 1.33 0 1 1 2.58.6 1.33 1.33 0 0 1-2.58-.6" fill="#FFF300"/><path d="M53.19 16.9a1.33 1.33 0 1 1 2.59.6 1.33 1.33 0 0 1-2.59-.6" fill="#5822F3"/><path d="M62.12 28.26a1.33 1.33 0 1 1 2.59.6 1.33 1.33 0 0 1-2.59-.6m-.22-9.76a1.33 1.33 0 1 1 2.59.6 1.33 1.33 0 0 1-2.59-.6" fill="#F84FAA"/><path d="M38.2 31.69a1.33 1.33 0 1 1 2.58.6 1.33 1.33 0 0 1-2.59-.6" fill="#5822F3"/><path d="M65.34 21.35a1.33 1.33 0 1 1 2.59.6 1.33 1.33 0 0 1-2.59-.6" fill="#F22F29"/><path d="M53.93 24.36a1.33 1.33 0 1 1 2.59.6 1.33 1.33 0 0 1-2.59-.6" fill="#FFB700"/><path d="M48.15 32.06a1.33 1.33 0 1 1 2.58.6 1.33 1.33 0 0 1-2.58-.6" fill="#5822F3"/><path d="M77.42 21.2a1.33 1.33 0 1 1-2.66 0 1.33 1.33 0 0 1 2.66 0" fill="#F84FAA"/><g transform="translate(0 135.9)"><mask id="b" fill="#fff"><use xlink:href="#a"/></mask><path d="M8.06 15.72v2.04H6.33c-1.42 0-2.49-.34-3.19-1.02-.7-.68-1.06-1.82-1.06-3.41V5.79H0V3.78h2.08V.28h2.34v3.5h3.61v2h-3.6v7.6c0 .9.16 1.51.49 1.84.33.33.9.5 1.72.5h1.42z" fill="#FFF" mask="url(#b)"/></g><path d="M22.93 141c1 1.05 1.5 2.56 1.5 4.53v8.12h-2.31v-7.92c0-1.4-.36-2.46-1.07-3.2a3.82 3.82 0 0 0-2.9-1.13c-1.27 0-2.29.41-3.05 1.24-.76.82-1.14 2.02-1.14 3.6v7.41h-2.32V134.8h2.32v8.18a4.76 4.76 0 0 1 1.89-2.62c.9-.62 1.95-.92 3.14-.92a5.2 5.2 0 0 1 3.94 1.57m.27 45.59c1.93-1.85 2.9-4.44 2.9-7.79 0-3.34-.97-5.94-2.9-7.79-1.93-1.84-4.64-2.77-8.11-2.77h-4.23v21.12h4.23c3.47 0 6.18-.92 8.11-2.77m9.6 1.85c-1.55 2.81-3.77 5-6.68 6.57a21.27 21.27 0 0 1-10.25 2.35H1.94V160.4h13.93c3.97 0 7.4.77 10.28 2.3 2.89 1.53 5.1 3.7 6.65 6.48 1.55 2.8 2.32 6 2.32 9.62 0 3.63-.77 6.84-2.32 9.64M50.6 171c-1.73 1.9-2.59 4.48-2.59 7.76 0 3.24.86 5.82 2.58 7.73 1.73 1.92 4.05 2.88 6.97 2.88 2.89 0 5.2-.96 6.94-2.88 1.74-1.91 2.6-4.5 2.6-7.73 0-3.24-.85-5.82-2.57-7.74-1.73-1.91-4.05-2.87-6.97-2.87s-5.24.95-6.97 2.85m16.44-8.73a17.7 17.7 0 0 1 6.7 6.74 19.37 19.37 0 0 1 2.46 9.75c0 3.62-.83 6.88-2.48 9.77a17.82 17.82 0 0 1-6.73 6.77 18.65 18.65 0 0 1-9.42 2.43c-3.44 0-6.58-.8-9.42-2.43a17.82 17.82 0 0 1-6.73-6.77 19.35 19.35 0 0 1-2.48-9.77c0-3.63.83-6.88 2.48-9.75a17.87 17.87 0 0 1 6.73-6.74 18.64 18.64 0 0 1 9.42-2.43c3.48 0 6.63.8 9.47 2.43" fill="#FFF"/><g transform="translate(80.85 158.56)"><mask id="d" fill="#fff"><use xlink:href="#c"/></mask><path fill="#FFF" mask="url(#d)" d="M32.95 40.33L9.11 19.93V38.8H.18V.33l23.85 20.61V1.85h8.92z"/></g><path d="M129.04 160.41v21.33c0 2.44.55 4.3 1.65 5.6 1.1 1.28 2.68 1.92 4.77 1.92 2.09 0 3.68-.64 4.78-1.93s1.64-3.15 1.64-5.6v-21.32h8.92v21.33c0 3.48-.68 6.42-2.03 8.8a13.24 13.24 0 0 1-5.56 5.39c-2.35 1.2-5 1.8-7.96 1.8-2.95 0-5.56-.59-7.82-1.77a12.6 12.6 0 0 1-5.33-5.39c-1.28-2.4-1.93-5.35-1.93-8.83V160.4h8.87zm55.78 0v7.11h-10.01v29.85h-8.98v-29.85h-9.91v-7.11z" fill="#FFF"/><path d="M44.91 40.08a1.33 1.33 0 1 1-2.66 0 1.33 1.33 0 0 1 2.66 0" fill="#F22F29"/><path d="M52.16 50.65a1.33 1.33 0 1 1-2.65 0 1.33 1.33 0 0 1 2.65 0" fill="#F84FAA"/><path d="M108.98 109.04a2.39 2.39 0 1 1 0-4.77 2.39 2.39 0 0 1 0 4.77m38.69-10.58a1.46 1.46 0 1 1 0-2.92 1.46 1.46 0 0 1 0 2.92m-15.46-6.63a1.46 1.46 0 1 1 0-2.92 1.46 1.46 0 0 1 0 2.92m-8.91-14.87a1.46 1.46 0 1 1 0-2.92 1.46 1.46 0 0 1 0 2.92m-21.25 24.92a2.09 2.09 0 1 1 0-4.18 2.09 2.09 0 0 1 0 4.18m40.15-20.42a1.34 1.34 0 1 1 .01-2.68 1.34 1.34 0 0 1 0 2.68m-26.38 41.27a1.52 1.52 0 1 1 0-3.03 1.52 1.52 0 0 1 0 3.03m-9.23 8.37a1.46 1.46 0 1 1 0-2.91 1.46 1.46 0 0 1 0 2.92m11.44-32.65a1.46 1.46 0 1 1 0-2.92 1.46 1.46 0 0 1 0 2.92m15.26 7.28a2.39 2.39 0 1 1 0-4.77 2.39 2.39 0 0 1 0 4.77m-11.46-18.22c-.29 0-.58-.1-.8-.32a1.15 1.15 0 0 1-.02-1.63c1.44-1.47 3.56-2.52 6.13-3.04a1.15 1.15 0 0 1 .45 2.26 9.5 9.5 0 0 0-4.93 2.39c-.23.23-.53.34-.83.34m6.05 32.17c-.62 0-1.13-.5-1.15-1.12a9.62 9.62 0 0 0-1.9-5.06 1.15 1.15 0 1 1 1.88-1.33 11.76 11.76 0 0 1 2.32 6.32c.02.63-.48 1.17-1.12 1.19h-.03m24.3-37.46c-.63 0-1.14-.51-1.15-1.14a9.59 9.59 0 0 0-1.82-5.07 1.15 1.15 0 0 1 1.9-1.3 11.73 11.73 0 0 1 2.21 6.34c.01.63-.5 1.16-1.13 1.17h-.01zm-48.24 35.35c-.12 0-.24-.02-.36-.06a10.27 10.27 0 0 1-5.55-4.71 1.15 1.15 0 1 1 2-1.13 7.94 7.94 0 0 0 4.28 3.66 1.15 1.15 0 0 1-.37 2.24" fill="#B88980"/><path d="M31.04 142.56a4.57 4.57 0 0 1 3.2-1.19c.8 0 1.54.17 2.22.51.67.34 1.2.86 1.6 1.56.33.6.5 1.4.51 2.25h-8.9a4.6 4.6 0 0 1 1.37-3.13zm7.23 6.51a3.5 3.5 0 0 1-1.32 2.02c-.75.57-1.69.85-2.8.85-1.24 0-2.3-.4-3.15-1.2-.85-.8-1.3-1.99-1.36-3.58H40.8c.07-.36.1-.79.1-1.28 0-1.17-.26-2.24-.8-3.2a5.96 5.96 0 0 0-2.3-2.32c-1.02-.58-2.2-.87-3.56-.87-1.33 0-2.52.29-3.55.87a6.1 6.1 0 0 0-2.43 2.5 7.95 7.95 0 0 0-.88 3.81c0 1.46.3 2.73.88 3.8a6.11 6.11 0 0 0 2.43 2.5c1.03.57 2.22.86 3.55.86 1.17 0 2.22-.21 3.16-.64a5.86 5.86 0 0 0 3.34-4.12h-2.47z" fill="#FFF"/><path d="M119.36 8.98c.06.14 6.2 14.38 4.9 29.11a215.92 215.92 0 0 1-4.82 29.05 1.15 1.15 0 0 0 2.23.56c.04-.14 3.54-14.27 4.88-29.4 1.17-13.18-3.23-25.6-4.66-29.2-.82-.4-1.64-.8-2.47-1.16-.18.31-.21.7-.06 1.04m12.4 30.82c.37 2.96.75 6.03 1 9.23a68.7 68.7 0 0 1-2.15 23.08 1.15 1.15 0 0 0 2.2.69c.13-.43 3.23-10.5 2.23-23.94-.24-3.26-.63-6.36-1-9.36-1.16-9.19-2.07-16.45 2.09-20.9l.05-.06c-.58-.5-1.17-.99-1.77-1.46-4.85 5.23-3.83 13.33-2.65 22.71m7.22-18.69c.07.16 7.46 18.65-1.03 50.62a1.15 1.15 0 0 0 2.22.59c7.07-26.61 3.58-42.64 1.85-48.08a68.43 68.43 0 0 0-3.04-3.14m8.86 35.27a80.34 80.34 0 0 0 1.08 11.74 1.15 1.15 0 1 0 2.26-.4c0-.06-.97-5.54-1.04-11.36-.09-7.24 1.26-11.87 3.79-13.04.1-.05.19-.11.27-.18-.29-.68-.58-1.34-.9-2-.1.01-.22.04-.33.09-3.5 1.62-5.23 6.71-5.13 15.15m-48.46-34.8c-.41 2.92-.89 5.63-1.34 8.26C97 35.74 96.1 40.9 96.6 44.92c.81.14 1.6.31 2.38.52l-.01-.2c-.64-3.74.27-8.97 1.32-15.02.46-2.65.94-5.38 1.35-8.34 1.29-9.08-2.2-17.22-3.2-19.3-.79-.08-1.58-.14-2.38-.18-.05.25-.02.5.1.74.05.09 4.57 8.82 3.2 18.42m10.31 16.32c-.16 6.28-1.87 10.2-2.54 11.5.63.45 1.24.95 1.82 1.46.6-1.04 2.83-5.42 3.02-12.9.12-4.81-.67-8.91-1.37-12.53-.65-3.38-1.27-6.57-1.06-9.85.4-6.52 3-9.6 3.03-9.63.12-.14.2-.3.25-.48-.75-.24-1.5-.46-2.26-.68-.79 1.07-2.94 4.51-3.32 10.64-.22 3.58.42 6.9 1.1 10.44.72 3.67 1.45 7.47 1.33 12.03" fill="#6C3C31"/></g></svg>