<svg data-name="Layer 1" xmlns="http://www.w3.org/2000/svg" viewBox="0 0 117.06 117.06"><path d="M37.59 21.94L39 24.6l-.85.46-3.52-6.6 2.1-1.12a2.7 2.7 0 0 1 1.98-.38 2.14 2.14 0 0 1 1.33 1.15 2.09 2.09 0 0 1 .2 1.75 2.76 2.76 0 0 1-1.4 1.42zm1.73-2.26a1.38 1.38 0 0 0-.15-1.1 1.4 1.4 0 0 0-.84-.77 1.8 1.8 0 0 0-1.3.28l-1.17.62 1.35 2.52 1.17-.63a1.78 1.78 0 0 0 .94-.92zm8.33-.57l-3.13 1-.08 1.84-.98.32.4-7.84 1.04-.33 4.86 6.16-.99.31zm-.5-.63L44.7 15.3l-.15 4.01zm8.03 1.04l-2.32-2.79-1.04.13.38 3.03-.96.13-.94-7.42 2.44-.31a2.67 2.67 0 0 1 1.97.36 2.14 2.14 0 0 1 .84 1.53 2.1 2.1 0 0 1-.32 1.52 2.38 2.38 0 0 1-1.38.88l2.41 2.8zm-3.45-3.35l1.4-.18q1.63-.2 1.45-1.64t-1.82-1.22l-1.4.17zm12.07 1.71a3.13 3.13 0 0 1-1.42 1.23 4.54 4.54 0 0 1-2.15.33l-2.37-.14.44-7.47 2.38.14a4.65 4.65 0 0 1 2.1.58 3.06 3.06 0 0 1 1.26 1.37 4.11 4.11 0 0 1 .34 2.01 4.1 4.1 0 0 1-.58 1.95zm-1.31.07a2.82 2.82 0 0 0 .9-2.07 2.85 2.85 0 0 0-.64-2.17 3.07 3.07 0 0 0-2.2-.9l-1.34-.07-.34 5.75 1.33.08a3.07 3.07 0 0 0 2.29-.62zm10.42-3.38a3.47 3.47 0 0 1 .9 1.67 4.34 4.34 0 0 1-1.08 3.8 3.48 3.48 0 0 1-1.63.96 3.65 3.65 0 0 1-1.94-.04 3.7 3.7 0 0 1-1.67-.98 3.45 3.45 0 0 1-.9-1.67 4.34 4.34 0 0 1 1.06-3.81 3.45 3.45 0 0 1 1.65-.95 3.67 3.67 0 0 1 1.94.04 3.63 3.63 0 0 1 1.67.98zm-3.34-.15a2.45 2.45 0 0 0-1.2.72 3.66 3.66 0 0 0-.85 3 2.46 2.46 0 0 0 .65 1.24 2.7 2.7 0 0 0 1.23.71 2.65 2.65 0 0 0 1.42.03 2.5 2.5 0 0 0 1.2-.73 3.64 3.64 0 0 0 .84-2.98 2.45 2.45 0 0 0-.64-1.24 2.86 2.86 0 0 0-2.65-.75zm9.88 10.92l-.85-.45-.65-7.04-2.78 5.21-.85-.45 3.52-6.6.85.45.64 7.06 2.79-5.23.85.45zm12.75.86l-.55.58-1.54-1.44-4.56 4.9-.71-.66 4.56-4.9-1.54-1.44.54-.57zm5.3 6.63l-5.97 4.5-.59-.78 2.77-2.08-2.29-3.04-2.76 2.08-.58-.77 5.97-4.5.59.77-2.6 1.95 2.3 3.03 2.58-1.94zm1.46 4.12l-2.28 1.16 1.29 2.53-.66.34-1.3-2.54-2.32 1.19 1.43 2.81-.7.36-1.87-3.68 6.67-3.39 1.87 3.68-.7.36zm6.3 18.29l-7.7-.6-.2-1.15 5.73-2.75-6.32-.66-.2-1.16 7.04-3.16.19 1.05-6.02 2.5 6.56.66.19 1.06-5.94 2.83 6.49.33zm-6.05 7.32l.2-3.28-1.7-.73.06-1.03 7.17 3.18-.06 1.1-7.5 2.33.07-1.04zm.77-.23l3.85-1.15-3.7-1.58zm4.18 5.7l-7.34-1.45.18-.94 7.34 1.44zm-2.09 7.33l-.75-.25.65-2-6.37-2.07.3-.92 6.37 2.07.65-2.01.75.24zm-7.38.89l-1.03-.49.5-1.06 1.03.48zm5.92 2.72l-4.88-2.45.34-.72 5 2.2zm-6.29 4.45a1.31 1.31 0 0 1-1.09 1.5 1.28 1.28 0 0 1-.98-.25 1.24 1.24 0 0 1-.52-.84 1.32 1.32 0 0 1 1.1-1.5 1.23 1.23 0 0 1 .96.23 1.26 1.26 0 0 1 .53.86zm-11.63 8.22a3.13 3.13 0 0 1 .18-1.87 4.55 4.55 0 0 1 1.33-1.72l1.82-1.53 4.82 5.72-1.82 1.53a4.65 4.65 0 0 1-1.92 1.03 3.07 3.07 0 0 1-1.86-.13 4.55 4.55 0 0 1-2.56-3.03zm.9-.96a3.31 3.31 0 0 0 2.73 3.26 3.06 3.06 0 0 0 2.2-.87l1.03-.86-3.71-4.4-1.03.86a3.08 3.08 0 0 0-1.22 2.01zm-5.22 9.62a3.47 3.47 0 0 1-1.8-.59 4.34 4.34 0 0 1-1.84-3.5 3.47 3.47 0 0 1 .53-1.81 3.63 3.63 0 0 1 1.43-1.3 3.68 3.68 0 0 1 1.89-.45 3.45 3.45 0 0 1 1.8.59 4.34 4.34 0 0 1 1.84 3.5 3.45 3.45 0 0 1-.53 1.82 3.7 3.7 0 0 1-1.44 1.31 3.63 3.63 0 0 1-1.88.44zm2.52-2.2a2.46 2.46 0 0 0 .38-1.34 3.66 3.66 0 0 0-1.45-2.75 2.46 2.46 0 0 0-1.32-.46 2.72 2.72 0 0 0-1.4.33 2.66 2.66 0 0 0-1.04.96 2.5 2.5 0 0 0-.37 1.35 3.65 3.65 0 0 0 1.44 2.75 2.45 2.45 0 0 0 1.32.45 2.67 2.67 0 0 0 1.39-.32 2.7 2.7 0 0 0 1.06-.96zM66.2 97l.93-.26 5.32 4.66-1.58-5.7.93-.26 2 7.2-.93.27-5.32-4.66 1.58 5.7-.93.26zm-2.32 7.86l-.34-4.48a2.33 2.33 0 0 0-.6-1.59 1.75 1.75 0 0 0-1.39-.42 1.7 1.7 0 0 0-1.28.63 2.37 2.37 0 0 0-.35 1.66l.33 4.47-.96.07-.34-4.47a3.14 3.14 0 0 1 .59-2.35 3.06 3.06 0 0 1 4.04-.3 3.15 3.15 0 0 1 .93 2.23l.33 4.47zm-12.47-.2l.08-.78 2.1.2.64-6.67.97.1-.65 6.66 2.1.2-.07.78zm-11.61-4.02a3.15 3.15 0 0 1-.47-2.07l.94.36a2.28 2.28 0 0 0 .43 1.34 2.6 2.6 0 0 0 1.22.92 2.65 2.65 0 0 0 1.41.16 2.48 2.48 0 0 0 1.25-.6 3.69 3.69 0 0 0 1.12-2.91 2.47 2.47 0 0 0-.54-1.3 2.83 2.83 0 0 0-1.2-.85 2.7 2.7 0 0 0-1.28-.18 2.44 2.44 0 0 0-1.19.47 2.94 2.94 0 0 0-.9 1.08l2.75 1.06-.26.67-3.5-1.35.32-.84a3.7 3.7 0 0 1 1.1-1.3 3.31 3.31 0 0 1 1.56-.62 3.6 3.6 0 0 1 1.8.24 3.72 3.72 0 0 1 1.6 1.14 3.35 3.35 0 0 1 .72 1.72 4.46 4.46 0 0 1-1.43 3.7 3.39 3.39 0 0 1-1.7.8 3.99 3.99 0 0 1-3.75-1.64zm-8.67-4.85a3.47 3.47 0 0 1-.32-1.87 4.34 4.34 0 0 1 2.22-3.28 3.48 3.48 0 0 1 1.85-.4 3.64 3.64 0 0 1 1.82.65 3.7 3.7 0 0 1 1.29 1.45 3.45 3.45 0 0 1 .33 1.87 4.33 4.33 0 0 1-2.22 3.29 3.46 3.46 0 0 1-1.86.39 3.86 3.86 0 0 1-3.11-2.1zm3.13 1.18a2.46 2.46 0 0 0 1.37-.3 3.67 3.67 0 0 0 1.73-2.58 2.46 2.46 0 0 0-.21-1.38 2.7 2.7 0 0 0-.95-1.07 2.64 2.64 0 0 0-1.34-.47 2.5 2.5 0 0 0-1.37.31 3.66 3.66 0 0 0-1.73 2.57 2.46 2.46 0 0 0 .22 1.38 2.85 2.85 0 0 0 2.28 1.54zM25.85 83.1l2.09 2.55 1.73-.61.66.8-7.44 2.5-.69-.84 3.94-6.78.66.8zm-.4.7l-2.06 3.44 3.79-1.33zm-2.83-9.45l.46.85-3.39 6.2 5.21-2.77.46.85-6.6 3.52-.45-.85 3.4-6.22-5.23 2.8-.45-.86zm-9.46-4.75l5.17.96 2.7-.85.29.94-2.7.84-3.7 3.73-.34-1.07 2.91-2.83-4-.67zM11.7 57.42l7.6 1.31.1 1.18-5.96 2.2 6.23 1.24.1 1.18L12.44 67l-.08-1.06 6.22-1.93-6.47-1.27-.09-1.07 6.18-2.26-6.43-.94zm1.23-8.96l7.4 1.15-.16.97-3.42-.54-.58 3.76 3.42.53-.15.96-7.4-1.16.15-.95 3.2.5.59-3.75-3.2-.5zm1.95-3.9l2.41.83.93-2.69.7.24-.92 2.7 2.47.84 1.02-3 .75.26-1.34 3.9-7.08-2.42 1.34-3.9.74.26zm9.94-5.95l-3.62.28-.5.92 2.7 1.45-.46.85-6.59-3.54 1.16-2.17a2.66 2.66 0 0 1 1.44-1.4 2.13 2.13 0 0 1 1.73.2 2.09 2.09 0 0 1 1.05 1.15 2.38 2.38 0 0 1-.08 1.63l3.68-.34zm-4.73.87l.66-1.24q.78-1.45-.5-2.13t-2.04.76l-.67 1.25zm1.47-8.03l2.03 1.56 1.73-2.26.59.45-1.73 2.26 2.07 1.59 1.92-2.52.63.48-2.51 3.28-5.94-4.55 2.5-3.28.63.48zm8.12-5.6a1.31 1.31 0 0 1 1.4-1.2 1.29 1.29 0 0 1 .9.47 1.29 1.29 0 0 1-.16 1.83 1.27 1.27 0 0 1-.95.3 1.24 1.24 0 0 1-.88-.45 1.28 1.28 0 0 1-.31-.95z" fill="#fff"/></svg>