<svg data-name="Layer 1" xmlns="http://www.w3.org/2000/svg" viewBox="0 0 117.06 117.06"><path d="M39.73 77.7a26.85 26.85 0 1 0 21.34-45.9q-1.27-.12-2.54-.12a26.72 26.72 0 0 0-13.39 3.57 27.04 27.04 0 0 0-9.65 9.5 8.2 8.2 0 0 1 1.22 4.52A9.31 9.31 0 0 1 39.7 61.2a9.29 9.29 0 0 1-2.26 2.84 8.22 8.22 0 0 1-2.93 6.5 26.98 26.98 0 0 0 5.22 7.16zm-1.41-13.1v-.16l.05-.04zm20.2 2.7a8.77 8.77 0 1 1 1.36-.1 8.85 8.85 0 0 1-1.35.1zm-25.2-14.85c-.03.76-1.2.82-1.68.48-.38-.28-.22-.8-.06-1.16.18-.4.63-.91 1.13-.85.59.06.63 1.12.62 1.53zm-2.5 4.76c-.37.44-1.32-.28-.98-.74a1 1 0 0 1 1.21-.32c.38.23-.04.84-.23 1.06zm.08 11.85c-.86.46-1.7-.84-1.55-1.59.11-.58.91-.7 1.4-.71a1.76 1.76 0 0 1 .97.26.88.88 0 0 1 .47.58c.05.65-.8 1.2-1.29 1.47zm3.88-7.77c.27.72.45 2.1-.67 2.13-.47.01-.7-.4-.76-.82a1.7 1.7 0 0 1 .45-1.39c.32-.34.79-.44.98.08zm-4.96-12.02c-.99.2-.51-1.57.2-1.17.28.16.33.64.27.93-.05.24-.28.2-.47.24z" fill="#e9ba67"/><path d="M41.12 77.79a25.77 25.77 0 0 0 17.3 6.7 5.19 5.19 0 0 0 1.21-3.38c0-3.23-2.22-3.23-2.22-6.45s2.22-3.23 2.22-6.45v-.1a9.64 9.64 0 0 1-10.7-8.48h-.07c-2.96 0-3.2-1.86-5.7-2.17a11.26 11.26 0 0 1-3.7 7.33 8.45 8.45 0 0 1-3.62 6.37 26.06 26.06 0 0 0 4.33 5.72q.46.46.95.9" fill="#f553a8"/><path d="M81.1 57.42c-3.22 0-3.22 2.22-6.44 2.22s-3.23-2.22-6.45-2.22h-.1a9.64 9.64 0 0 1-8.47 10.7v.08c0 3.23-2.22 3.23-2.22 6.45s2.22 3.23 2.22 6.45a5.19 5.19 0 0 1-1.22 3.39h.1A25.96 25.96 0 0 0 84.5 58.63a5.19 5.19 0 0 0-3.38-1.21z" fill="#6b3c32"/><path d="M48.87 58.53a9.66 9.66 0 0 1 8.55-9.6v-.08c0-3.22 2.22-3.22 2.22-6.45s-2.22-3.22-2.22-6.45a5.2 5.2 0 0 1 1.21-3.38h-.1a25.82 25.82 0 0 0-12.3 3.08 26.25 26.25 0 0 0-9.35 8.54 7.5 7.5 0 0 1 2.06 4.41s4.12 3.5 4.25 7.53a11.93 11.93 0 0 1-.04 1.34c2.5.31 2.75 2.17 5.7 2.17h.08a9.65 9.65 0 0 1-.06-1.11z" fill="#fffbe9"/><path d="M76.89 40.17a25.79 25.79 0 0 0-18.26-7.6 5.2 5.2 0 0 0-1.21 3.38c0 3.23 2.22 3.23 2.22 6.46s-2.22 3.22-2.22 6.45v.08a9.64 9.64 0 0 1 10.7 8.48h.09c3.22 0 3.22 2.22 6.45 2.22s3.22-2.22 6.45-2.22a5.19 5.19 0 0 1 3.38 1.22v-.1a25.8 25.8 0 0 0-7.6-18.37z" fill="#3dc9fb"/><circle cx="53.97" cy="45.82" r=".51" fill="#5832ee"/><circle cx="54.3" cy="48.97" r=".51" fill="#32ee68"/><circle cx="57.16" cy="44.08" r=".51" fill="#fcb52b"/><circle cx="58.53" cy="43.2" r=".51" fill="#3dc9fb"/><circle cx="57.49" cy="45.66" r=".51" fill="#32ee68"/><circle cx="55.98" cy="46.13" r=".51" fill="#f553a8"/><circle cx="54.3" cy="47.47" r=".51" fill="#3dc9fb"/><circle cx="56.55" cy="48.25" r=".51" fill="#fcb52b"/><circle cx="57.42" cy="40.74" r=".51" fill="#ee3232"/><circle cx="58.47" cy="41.84" r=".51" fill="#5832ee"/><circle cx="56.42" cy="42.41" r=".51" fill="#f553a8"/><circle cx="54.08" cy="39.86" r=".51" fill="#32ee68"/><circle cx="55.11" cy="36.22" r=".51" fill="#3dc9fb"/><circle cx="56.42" cy="36.49" r=".51" fill="#fcb52b"/><circle cx="56.25" cy="34.97" r=".51" fill="#f553a8"/><circle cx="57.12" cy="33.5" r=".51" fill="#5832ee"/><circle cx="55.31" cy="33.71" r=".51" fill="#32ee68"/><circle cx="54.17" cy="35.08" r=".51" fill="#f553a8"/><circle cx="52.94" cy="33.94" r=".51" fill="#3dc9fb"/><circle cx="57.12" cy="38.44" r=".51" fill="#f553a8"/><circle cx="55.22" cy="38.04" r=".51" fill="#fdf035"/><circle cx="53.16" cy="43.77" r=".51" fill="#f553a8"/><circle cx="52.13" cy="44.91" r=".51" fill="#32ee68"/><circle cx="51.39" cy="43.42" r=".51" fill="#fdf035"/><circle cx="55.05" cy="44.68" r=".51" fill="#32ee68"/><circle cx="54.65" cy="43.23" r=".51" fill="#3dc9fb"/><circle cx="53.04" cy="41.71" r=".51" fill="#fcb52b"/><circle cx="52.39" cy="46.39" r=".51" fill="#fcb52b"/><circle cx="47.23" cy="37.53" r=".51" fill="#fcb52b"/><circle cx="50.59" cy="44.34" r=".51" fill="#3dc9fb"/><circle cx="50.59" cy="46.03" r=".51" fill="#f553a8"/><circle cx="46.8" cy="46.03" r=".51" fill="#32ee68"/><circle cx="49.63" cy="43.2" r=".51" fill="#ee3232"/><circle cx="48.56" cy="46.96" r=".51" fill="#3dc9fb"/><circle cx="47.75" cy="44.36" r=".51" fill="#fdf035"/><circle cx="48.73" cy="38.42" r=".51" fill="#fdf035"/><circle cx="50.59" cy="49.54" r=".51" fill="#f553a8"/><circle cx="45.44" cy="37.92" r=".51" fill="#f553a8"/><circle cx="50.39" cy="47.84" r=".51" fill="#5832ee"/><circle cx="50.96" cy="51.33" r=".51" fill="#fcb52b"/><circle cx="49.15" cy="48.41" r=".51" fill="#3dc9fb"/><circle cx="49.44" cy="50.76" r=".51" fill="#32ee68"/><circle cx="45.35" cy="45.82" r=".51" fill="#3dc9fb"/><circle cx="46.03" cy="44.36" r=".51" fill="#f553a8"/><circle cx="43.92" cy="44.93" r=".51" fill="#5832ee"/><circle cx="42.82" cy="46.03" r=".51" fill="#32ee68"/><circle cx="41.5" cy="46.78" r=".51" fill="#fcb52b"/><circle cx="40.51" cy="48.76" r=".51" fill="#5832ee"/><circle cx="43.92" cy="47.27" r=".51" fill="#f553a8"/><circle cx="45.46" cy="47.84" r=".51" fill="#ee3232"/><circle cx="42.82" cy="49.62" r=".51" fill="#3dc9fb"/><circle cx="41.62" cy="49.7" r=".51" fill="#fcb52b"/><circle cx="38.97" cy="45.31" r=".51" fill="#32ee68"/><circle cx="44.49" cy="49.19" r=".51" fill="#fdf035"/><circle cx="40.75" cy="44.8" r=".51" fill="#fdf035"/><circle cx="45.66" cy="50.93" r=".51" fill="#fcb52b"/><circle cx="43.92" cy="51.1" r=".51" fill="#5832ee"/><circle cx="44.67" cy="52.46" r=".51" fill="#32ee68"/><circle cx="45.66" cy="55.95" r=".51" fill="#5832ee"/><circle cx="48.49" cy="56.15" r=".51" fill="#ee3232"/><circle cx="48.3" cy="58.61" r=".51" fill="#f553a8"/><circle cx="47.99" cy="53.91" r=".51" fill="#3dc9fb"/><circle cx="44.15" cy="56.93" r=".51" fill="#3dc9fb"/><circle cx="46.97" cy="52.42" r=".51" fill="#f553a8"/><circle cx="58.53" cy="58.53" r="8.77" fill="none"/><circle cx="41.91" cy="48.04" r=".51" fill="#ee3232"/><circle cx="43.39" cy="52.83" r=".51" fill="#fcb52b"/><circle cx="43.96" cy="55.27" r=".51" fill="#f553a8"/><circle cx="45.77" cy="54.13" r=".51" fill="#fdf035"/><circle cx="46.4" cy="49.82" r=".51" fill="#5832ee"/><circle cx="46.97" cy="48.01" r=".51" fill="#f553a8"/><circle cx="47.92" cy="49.25" r=".51" fill="#fcb52b"/><circle cx="47.75" cy="50.93" r=".51" fill="#fdf035"/><circle cx="49.47" cy="53.03" r=".51" fill="#ee3232"/><circle cx="46.97" cy="55.2" r=".51" fill="#fcb52b"/><circle cx="46.97" cy="56.9" r=".51" fill="#32ee68"/><circle cx="45.83" cy="57.79" r=".51" fill="#fcb52b"/><path d="M46.54 64.26a.44.44 0 0 1-.35-.16l-1.53-1.87a.44.44 0 1 1 .69-.56l1.53 1.86a.44.44 0 0 1-.34.73z" fill="#fdf035"/><path d="M46.3 68.65a.45.45 0 0 1-.33-.74l1.6-1.81a.44.44 0 0 1 .66.59l-1.6 1.8a.44.44 0 0 1-.33.16zm-7.03 4.28a.44.44 0 0 1-.43-.37l-.38-2.38a.44.44 0 1 1 .87-.14l.38 2.38a.45.45 0 0 1-.37.5.55.55 0 0 1-.07.01z" fill="#3dc9fb"/><path d="M47.42 73.82a.44.44 0 0 1-.29-.11.44.44 0 0 1-.04-.63l1.6-1.8a.44.44 0 0 1 .67.58l-1.6 1.81a.44.44 0 0 1-.34.15zm-5.39-6.28a.44.44 0 0 1-.44-.46l.06-2.57a.44.44 0 0 1 .9.03l-.07 2.56a.44.44 0 0 1-.45.44z" fill="#fffbe9"/><rect x="55.04" y="72.77" width=".89" height="3.46" rx=".44" fill="#fdf035"/><path d="M43.86 74.2a.44.44 0 0 1-.33-.15l-1.61-1.8a.44.44 0 0 1 .66-.6l1.6 1.8a.45.45 0 0 1-.32.75z" fill="#fff"/><path d="M51.9 79.7a.44.44 0 0 1-.06-.89l2.23-.35a.44.44 0 1 1 .14.88l-2.23.35a.41.41 0 0 1-.07 0z" fill="#3dc9fb"/><path d="M55.79 83.1a.44.44 0 0 1-.38-.67l1.14-1.95a.44.44 0 1 1 .76.45l-1.14 1.94a.44.44 0 0 1-.38.22zm-2.2-12.56a.44.44 0 0 1-.35-.17l-1.5-1.91a.44.44 0 0 1 .7-.55l1.5 1.91a.44.44 0 0 1-.35.72z" fill="#fffbe9"/><path d="M46.85 80.8a.3.3 0 0 1-.04 0 .44.44 0 0 1-.4-.48l.24-2.56a.44.44 0 1 1 .89.08l-.24 2.55a.44.44 0 0 1-.45.41z" fill="#fdf035"/><circle cx="49.82" cy="37.3" r=".51" fill="#32ee68"/><circle cx="50.96" cy="36.49" r=".51" fill="#fcb52b"/><circle cx="51.75" cy="38.18" r=".51" fill="#fdf035"/><circle cx="53.24" cy="36.3" r=".51" fill="#5832ee"/><circle cx="53.4" cy="38.27" r=".51" fill="#3dc9fb"/><circle cx="54.65" cy="41.71" r=".51" fill="#5832ee"/><circle cx="55.98" cy="39.86" r=".51" fill="#fcb52b"/><circle cx="52.1" cy="35.24" r=".51" fill="#f553a8"/><circle cx="50.59" cy="34.97" r=".51" fill="#ee3232"/><circle cx="49.25" cy="35.24" r=".51" fill="#3dc9fb"/><circle cx="47.99" cy="36.38" r=".51" fill="#5832ee"/><circle cx="52.59" cy="49.62" r=".51" fill="#5832ee"/><circle cx="52.13" cy="47.84" r=".51" fill="#ee3232"/><circle cx="49.06" cy="44.93" r=".51" fill="#fcb52b"/><circle cx="50.96" cy="41.71" r=".51" fill="#5832ee"/><circle cx="48.64" cy="41.46" r=".51" fill="#5832ee"/><circle cx="50.07" cy="40.68" r=".51" fill="#3dc9fb"/><circle cx="40.24" cy="41.66" r=".51" fill="#f553a8"/><circle cx="41.5" cy="40.78" r=".51" fill="#32ee68"/><circle cx="46.18" cy="36.51" r=".51" fill="#32ee68"/><circle cx="41.5" cy="42.4" r=".51" fill="#fdf035"/><circle cx="50.59" cy="39.08" r=".51" fill="#32ee68"/><circle cx="38.83" cy="42.68" r=".51" fill="#3dc9fb"/><circle cx="39.89" cy="43.69" r=".51" fill="#fcb52b"/><circle cx="42.01" cy="39.35" r=".51" fill="#fcb52b"/><circle cx="43.19" cy="42.48" r=".51" fill="#3dc9fb"/><circle cx="43.26" cy="40.03" r=".51" fill="#f553a8"/><circle cx="46.45" cy="40.78" r=".51" fill="#32ee68"/><circle cx="44.38" cy="43.57" r=".51" fill="#ee3232"/><circle cx="45.44" cy="39.59" r=".51" fill="#3dc9fb"/><circle cx="45.64" cy="42.31" r=".51" fill="#fdf035"/><circle cx="43.87" cy="38.32" r=".51" fill="#5832ee"/><circle cx="47.32" cy="42.7" r=".51" fill="#f553a8"/><circle cx="47.23" cy="38.93" r=".51" fill="#f553a8"/><circle cx="38.07" cy="44.02" r=".51" fill="#5832ee"/><circle cx="48.56" cy="40.03" r=".51" fill="#ee3232"/><circle cx="44.15" cy="41.19" r=".51" fill="#fcb52b"/><circle cx="41.92" cy="44.16" r=".51" fill="#5832ee"/><circle cx="52.22" cy="39.86" r=".51" fill="#f553a8"/><circle cx="39.66" cy="47.14" r=".51" fill="#ee3232"/><circle cx="42.46" cy="51.22" r=".51" fill="#f553a8"/><circle cx="64.93" cy="72.83" r=".92" fill="#b68880"/><circle cx="79.89" cy="69.1" r=".56" fill="#b68880"/><circle cx="73.91" cy="66.54" r=".56" fill="#b68880"/><circle cx="70.47" cy="60.81" r=".56" fill="#b68880"/><circle cx="62.25" cy="70.18" r=".81" fill="#b68880"/><circle cx="77.77" cy="62.59" r=".52" fill="#b68880"/><circle cx="67.58" cy="78.44" r=".59" fill="#b68880"/><circle cx="64.01" cy="81.7" r=".56" fill="#b68880"/><circle cx="68.43" cy="69.1" r=".56" fill="#b68880"/><circle cx="74.33" cy="71.55" r=".92" fill="#b68880"/><path d="M69.9 65.45a.44.44 0 0 1-.32-.76 4.5 4.5 0 0 1 2.37-1.17.44.44 0 0 1 .18.87 3.68 3.68 0 0 0-1.91.92.44.44 0 0 1-.32.14zm2.34 12.41a.44.44 0 0 1-.44-.43 3.7 3.7 0 0 0-.74-1.96.44.44 0 1 1 .72-.5 4.53 4.53 0 0 1 .9 2.43.44.44 0 0 1-.43.45zm9.39-14.46a.45.45 0 0 1-.44-.44 3.7 3.7 0 0 0-.7-1.96.44.44 0 1 1 .73-.5 4.51 4.51 0 0 1 .85 2.45.44.44 0 0 1-.43.45zM62.99 77.04a.45.45 0 0 1-.14-.02 3.97 3.97 0 0 1-2.15-1.82.44.44 0 0 1 .77-.44 3.07 3.07 0 0 0 1.66 1.41.44.44 0 0 1-.15.87z" fill="#b68880"/><path d="M68.94 35.14a26.17 26.17 0 0 1 1.9 11.23 83.18 83.18 0 0 1-1.87 11.21.44.44 0 1 0 .87.22 84.1 84.1 0 0 0 1.88-11.35 26.46 26.46 0 0 0-1.8-11.26c-.31-.16-.63-.3-.95-.45a.44.44 0 0 0-.03.4zm4.79 11.89c.15 1.15.3 2.33.39 3.56a26.47 26.47 0 0 1-.83 8.9.44.44 0 0 0 .85.27 26.85 26.85 0 0 0 .86-9.23c-.1-1.26-.24-2.45-.39-3.61-.44-3.55-.8-6.35.81-8.06l.02-.03-.68-.56c-1.87 2.02-1.48 5.14-1.03 8.76zm2.79-7.21c.03.06 2.9 7.2-.4 19.53a.44.44 0 0 0 .32.54.45.45 0 0 0 .11.02.44.44 0 0 0 .43-.33c2.74-10.27 1.39-16.45.72-18.55q-.4-.44-.82-.86l-.14-.14-.22-.21zm3.43 13.6a31.01 31.01 0 0 0 .42 4.53.45.45 0 0 0 .43.37.41.41 0 0 0 .08-.01.44.44 0 0 0 .36-.52 30.78 30.78 0 0 1-.4-4.38c-.03-2.79.49-4.58 1.47-5.03a.43.43 0 0 0 .1-.07l-.34-.77a.42.42 0 0 0-.14.04c-1.35.62-2.02 2.59-1.98 5.84zM61.22 40c-.16 1.12-.34 2.17-.52 3.18a21.87 21.87 0 0 0-.55 5.83q.47.08.92.2a.44.44 0 0 0 0-.08 19.54 19.54 0 0 1 .5-5.8c.18-1.02.37-2.08.53-3.22a13.87 13.87 0 0 0-1.24-7.45l-.92-.06a.44.44 0 0 0 .04.28A13.18 13.18 0 0 1 61.22 40zm3.98 6.3a10.44 10.44 0 0 1-.98 4.43c.24.17.48.36.7.56a10.81 10.81 0 0 0 1.17-4.97 21.56 21.56 0 0 0-.53-4.84 15.01 15.01 0 0 1-.42-3.8 6.62 6.62 0 0 1 1.18-3.71.44.44 0 0 0 .1-.19l-.88-.26a7.74 7.74 0 0 0-1.28 4.1 15.69 15.69 0 0 0 .43 4.03 20.51 20.51 0 0 1 .51 4.64z" fill="#6b3c32"/></svg>