<svg width="21" height="16" xmlns="http://www.w3.org/2000/svg"><path d="M20.94 5.16v9.02c0 .5-.19.93-.55 1.29-.37.35-.8.53-1.32.53H1.87c-.51 0-.95-.18-1.32-.53A1.73 1.73 0 0 1 0 14.18V5.16c.34.37.74.7 1.18.99a234.11 234.11 0 0 1 6.89 4.66c.27.18.64.36 1.1.55.46.18.89.28 1.29.28h.02c.4 0 .83-.1 1.28-.28.46-.19.83-.37 1.1-.55a243.82 243.82 0 0 1 6.9-4.66c.45-.3.84-.63 1.18-1zm0-3.34c0 .6-.2 1.17-.58 1.71a5.48 5.48 0 0 1-1.42 1.4 9439.38 9439.38 0 0 0-7.2 4.84c-.24.14-.47.24-.68.31-.2.07-.4.1-.58.1h-.02a1.9 1.9 0 0 1-.59-.1 3.59 3.59 0 0 1-.67-.3 12.18 12.18 0 0 1-1.24-.8l-.5-.36a579.36 579.36 0 0 0-5.45-3.69A5.73 5.73 0 0 1 .64 3.62 2.61 2.61 0 0 1 0 2.07C0 1.47.16.98.48.59.81.2 1.27 0 1.87 0h17.2c.5 0 .94.18 1.31.53.37.36.56.79.56 1.29z" fill="#FFFCE9"/></svg>