<svg width="50" height="50" xmlns="http://www.w3.org/2000/svg"><path d="M25.278 20.598c-2.847 0-5.143 2.146-5.143 4.806s2.296 4.806 5.143 4.806c2.846 0 5.142-2.146 5.142-4.806s-2.296-4.806-5.142-4.806zm0 7.93c-1.84 0-3.344-1.4-3.344-3.124 0-1.723 1.5-3.124 3.344-3.124 1.844 0 3.343 1.4 3.343 3.124 0 1.723-1.504 3.124-3.343 3.124zm6.552-8.126c0 .623-.537 1.12-1.2 1.12-.666 0-1.199-.501-1.199-1.12 0-.62.537-1.121 1.2-1.121.662 0 1.2.502 1.2 1.12zm3.406 1.137c-.076-1.501-.443-2.831-1.62-3.927-1.173-1.096-2.596-1.439-4.203-1.514-1.656-.088-6.62-.088-8.275 0-1.603.071-3.026.414-4.203 1.51-1.177 1.096-1.54 2.426-1.62 3.927-.094 1.548-.094 6.186 0 7.734.076 1.501.443 2.831 1.62 3.927s2.596 1.439 4.203 1.514c1.656.088 6.62.088 8.275 0 1.607-.071 3.03-.414 4.203-1.514 1.173-1.096 1.54-2.426 1.62-3.927.094-1.548.094-6.182 0-7.73zm-2.14 9.39c-.348.82-1.024 1.451-1.906 1.782-1.32.49-4.453.376-5.912.376-1.46 0-4.597.109-5.913-.376-.877-.326-1.553-.958-1.906-1.782-.524-1.234-.403-4.162-.403-5.525 0-1.364-.117-4.295.403-5.525.349-.82 1.024-1.451 1.906-1.782 1.32-.49 4.454-.376 5.913-.376 1.459 0 4.596-.109 5.912.376.877.326 1.553.958 1.907 1.782.524 1.234.403 4.161.403 5.525 0 1.363.12 4.295-.403 5.525z" fill="#FFFCE9"/></svg>