<svg width="50" height="50" xmlns="http://www.w3.org/2000/svg"><path d="M34.63 22.154c.014.182.014.364.014.547 0 5.56-4.342 11.966-12.279 11.966-2.445 0-4.716-.69-6.627-1.888.348.039.682.052 1.043.052a8.787 8.787 0 0 0 5.357-1.797c-1.897-.04-3.487-1.25-4.035-2.917.267.04.535.065.815.065.388 0 .775-.052 1.136-.143-1.977-.39-3.46-2.083-3.46-4.128v-.052a4.432 4.432 0 0 0 1.95.534c-1.162-.755-1.924-2.044-1.924-3.502 0-.782.214-1.498.588-2.123 2.124 2.552 5.318 4.219 8.898 4.401a4.632 4.632 0 0 1-.107-.963C26 19.888 27.923 18 30.315 18a4.36 4.36 0 0 1 3.153 1.328 8.633 8.633 0 0 0 2.739-1.015 4.216 4.216 0 0 1-1.897 2.317 8.83 8.83 0 0 0 2.485-.65 9.152 9.152 0 0 1-2.165 2.174z" fill="#FFFCE9"/></svg>