<svg width="60" height="60" fill="none" xmlns="http://www.w3.org/2000/svg"><path clip-rule="evenodd" d="M50.795 8.768s-13.258-.884-23.865 9.723c-7.955 7.956-12.374 17.677-12.374 17.677l4.419 4.42 4.42 4.419s9.722-4.419 17.677-12.374c10.606-10.608 9.723-23.865 9.723-23.865z" stroke="#fff" stroke-width="2.5" stroke-linejoin="round"/><path clip-rule="evenodd" d="M40.188 26.446a5 5 0 1 1-7.071-7.072 5 5 0 0 1 7.07 7.072z" stroke="#fff" stroke-width="2.5" stroke-linejoin="round"/><path d="M42.85 9.65a9.318 9.318 0 0 0 6.885 7.733M21.798 24.402l-5.325.852a3.617 3.617 0 0 0-2.722 2.076l-3.615 7.954 5.16-.616M35.161 37.765l-.852 5.326a3.615 3.615 0 0 1-2.075 2.72l-7.956 3.616.617-5.16" stroke="#fff" stroke-width="2.5" stroke-linejoin="round"/><path d="M12.559 41.54l-2.835 2.835M18.987 47.968L14.756 52.2M15.773 44.754L8.75 51.777" stroke="#fff" stroke-width="2.5" stroke-linecap="round" stroke-linejoin="round"/></svg>