<svg width="60" height="60" fill="none" xmlns="http://www.w3.org/2000/svg"><path fill-rule="evenodd" clip-rule="evenodd" d="M20.905 24.126c.61.29 1.074.69 1.392 1.196.315.506.474 1.078.474 1.714 0 .786-.204 1.42-.613 1.897-.41.478-.92.78-1.53.904v.085c1.579.502 2.369 1.475 2.369 2.922 0 .694-.162 1.311-.485 1.852-.323.54-.793.962-1.408 1.263-.618.302-1.358.453-2.223.453-1.406 0-2.52-.342-3.345-1.026-.824-.68-1.27-1.723-1.339-3.123h2.887c.023.534.173.955.45 1.263.275.307.68.462 1.21.462.426 0 .763-.125 1.01-.377.249-.25.373-.574.373-.973 0-.99-.726-1.485-2.179-1.485h-.553v-2.374h.536c1.302.023 1.954-.437 1.954-1.383 0-.41-.113-.726-.338-.949-.225-.221-.526-.332-.908-.332-.414 0-.742.14-.985.419-.242.279-.38.652-.414 1.118h-2.888c.057-1.275.46-2.254 1.21-2.936.749-.683 1.798-1.025 3.147-1.025.852 0 1.585.145 2.196.435zM28.234 33.416c.3.323.737.486 1.315.486.518 0 .923-.142 1.219-.427.294-.284.44-.7.44-1.247 0-.546-.15-.964-.449-1.254-.301-.29-.71-.436-1.227-.436-.496 0-.91.14-1.246.418-.334.279-.5.675-.5 1.187 0 .523.15.947.448 1.273zm2.152-6.977c-.236-.25-.572-.374-1.01-.374-.669 0-1.145.303-1.427.912-.283.609-.412 1.546-.389 2.81.195-.468.534-.835 1.011-1.101.479-.268 1.035-.402 1.669-.402 1.151 0 2.063.344 2.731 1.032.669.69 1.003 1.677 1.003 2.964 0 .807-.167 1.526-.502 2.15a3.485 3.485 0 0 1-1.477 1.461c-.651.347-1.432.52-2.343.52-1.786 0-3.02-.546-3.7-1.64-.68-1.09-1.02-2.605-1.02-4.54 0-2.232.364-3.873 1.09-4.926.725-1.054 1.907-1.58 3.544-1.58 1.29 0 2.27.362 2.94 1.084.666.722 1.042 1.637 1.122 2.741h-2.766c-.081-.49-.24-.86-.476-1.111zM42.306 30.128c0-1.081-.129-1.909-.388-2.485-.26-.574-.77-.862-1.53-.862-.773 0-1.29.29-1.556.871-.265.581-.398 1.406-.398 2.476 0 1.082.133 1.916.398 2.501.265.588.783.88 1.556.88.76 0 1.27-.292 1.53-.88.26-.585.388-1.419.388-2.501zm-6.777 0c0-1.879.387-3.367 1.16-4.465.77-1.099 2.004-1.648 3.699-1.648 1.682 0 2.912.55 3.69 1.648.778 1.098 1.166 2.586 1.166 4.465 0 1.89-.388 3.388-1.166 4.49-.778 1.105-2.008 1.657-3.69 1.657-1.695 0-2.928-.552-3.7-1.656-.772-1.103-1.16-2.601-1.16-4.491z" fill="#fff"/><path clip-rule="evenodd" d="M52.89 29.915c0 12.72-10.44 23.03-23.317 23.03-12.879 0-23.317-10.31-23.317-23.03 0-12.718 10.438-23.03 23.317-23.03 12.877 0 23.317 10.312 23.317 23.03z" stroke="#fff" stroke-width="2.5"/><path clip-rule="evenodd" d="M48.75 26.875a2.5 2.5 0 1 0 0-5 2.5 2.5 0 0 0 0 5z" stroke="#fff" stroke-width="2.5"/><path d="M19.08 21.459c1.651-8.536 5.728-14.574 10.492-14.574 3.114 0 5.935 2.578 7.974 6.747" stroke="#fff" stroke-width="2.5" stroke-linecap="round"/><path fill-rule="evenodd" clip-rule="evenodd" d="M39.894 16.7c0 .567-.464 1.023-1.034 1.023a1.026 1.026 0 0 1-1.034-1.022c0-.564.462-1.02 1.034-1.02.57 0 1.034.456 1.034 1.02z" fill="#fff"/><path d="M39.894 38.373c-1.65 8.535-5.727 14.573-10.492 14.573-3.114 0-5.934-2.578-7.973-6.747" stroke="#fff" stroke-width="2.5" stroke-linecap="round"/><path fill-rule="evenodd" clip-rule="evenodd" d="M19.08 43.4c0-.564.464-1.02 1.035-1.02.572 0 1.033.456 1.033 1.02 0 .566-.461 1.022-1.033 1.022-.571 0-1.034-.456-1.034-1.022z" fill="#fff"/><path d="M47.308 22.685c-4.277-2.391-10.636-3.907-17.735-3.907-12.878 0-23.317 4.986-23.317 11.138 0 6.15 10.44 11.137 23.317 11.137s23.316-4.987 23.316-11.137c0-1.558-.67-3.042-1.879-4.389" stroke="#fff" stroke-width="2.5"/><path clip-rule="evenodd" d="M48.75 26.875a2.5 2.5 0 1 0 0-5 2.5 2.5 0 0 0 0 5z" stroke="#fff" stroke-width="2.5"/></svg>