<svg width="60" height="60" fill="none" xmlns="http://www.w3.org/2000/svg"><path clip-rule="evenodd" d="M52.007 34.484c0 11.28-9.178 20.426-20.497 20.426-11.322 0-20.5-9.145-20.5-20.426 0-11.282 9.178-20.426 20.5-20.426 11.32 0 20.497 9.145 20.497 20.426z" stroke="#fff" stroke-width="2.5"/><path d="M19.9 31.645a3.404 3.404 0 0 1 2.773-3.944 3.414 3.414 0 0 1 3.957 2.762M36.389 30.463a3.415 3.415 0 0 1 3.957-2.762 3.405 3.405 0 0 1 2.771 3.943M21.855 37.888a10.243 10.243 0 0 0 9.654 6.81c4.46 0 8.245-2.846 9.653-6.81M6.875 12.5v10M11.875 17.5h-10M50.676 50.188v6.38M53.878 53.378h-6.405M24.72 1.411c.176 1.56-.573 1.644-.396 3.205.175 1.563.923 1.48 1.1 3.042.175 1.563-.572 1.647-.395 3.21M57.716 17.93c-.874.603-1.113.258-1.989.861-.875.606-.636.949-1.513 1.555-.878.604-1.116.258-1.993.862M10.342 50.564c-.875.602-1.115.258-1.99.86-.875.606-.636.95-1.513 1.554-.877.606-1.116.261-1.993.864" stroke="#fff" stroke-width="2.5"/></svg>