<svg width="60" height="60" fill="none" xmlns="http://www.w3.org/2000/svg"><path d="M19.203 21.303v6.087l5.372-6.087h3.45l2.295 6.588 2.296-6.588h3.45l5.373 6.087v-6.087h.223a7.338 7.338 0 0 0 0-14.677H18.979a7.34 7.34 0 0 0-4.257 13.315" stroke="#fff" stroke-width="2.5" stroke-linejoin="round"/><path clip-rule="evenodd" d="M33.766 35.277a3.445 3.445 0 1 1-6.89-.003 3.445 3.445 0 0 1 6.89.003z" stroke="#fff" stroke-width="2.5"/><path d="M34.657 45.666v4.74a1.85 1.85 0 0 0 3.7 0V44.13a5.41 5.41 0 0 0-5.408-5.409H30.32M34.657 50.407v4.731" stroke="#fff" stroke-width="2.5" stroke-linecap="round"/><path clip-rule="evenodd" d="M44.751 33.769a2.856 2.856 0 0 1-2.856 2.854 2.856 2.856 0 1 1 0-5.71 2.856 2.856 0 0 1 2.856 2.856z" stroke="#fff" stroke-width="2.5"/><path d="M46.231 43.57v4.742a1.849 1.849 0 1 0 3.7 0v-6.279a5.409 5.409 0 0 0-5.409-5.408h-2.627M46.231 48.311v4.73" stroke="#fff" stroke-width="2.5" stroke-linecap="round"/><path clip-rule="evenodd" d="M15.89 33.769a2.856 2.856 0 0 0 2.857 2.854 2.856 2.856 0 1 0 0-5.71 2.856 2.856 0 0 0-2.857 2.856z" stroke="#fff" stroke-width="2.5"/><path d="M14.41 43.57v4.742a1.849 1.849 0 1 1-3.7 0v-6.279a5.409 5.409 0 0 1 5.41-5.408h2.627M14.41 48.311v4.73M25.985 45.666v4.74a1.85 1.85 0 0 1-3.7 0V44.13a5.41 5.41 0 0 1 5.408-5.409h2.628M25.985 50.407v4.731" stroke="#fff" stroke-width="2.5" stroke-linecap="round"/><path d="M56.088 3.932L4.303 23.972" stroke="#fff" stroke-width="2.5"/></svg>