<svg width="60" height="60" fill="none" xmlns="http://www.w3.org/2000/svg"><path clip-rule="evenodd" d="M28.137 13.614c-5.167.592-9.432 4.718-10.21 9.902-.526 3.503.484 6.763 2.442 9.223l1.261 1.46a11.32 11.32 0 0 1 2.754 7.403h10.259c0-2.72.977-5.353 2.752-7.404l1.263-1.46a11.827 11.827 0 0 0 2.578-7.386c0-6.983-6.009-12.552-13.099-11.738z" stroke="#fff" stroke-width="2.5"/><path d="M24.384 46.773h10.259" stroke="#fff" stroke-width="2.5" stroke-linecap="square"/><path d="M24.384 51.945h10.259" stroke="#fff" stroke-width="2.5"/><path d="M24.384 46.773h10.259" stroke="#fff" stroke-width="2.5" stroke-linecap="square"/><path fill-rule="evenodd" clip-rule="evenodd" d="M14.614 41.131h2.983v-3.01h-2.983v3.01zM41.43 41.131h2.983v-3.01H41.43v3.01zM8.75 27.568h2.984V24.56H8.75v3.008zM47.292 27.568h2.983V24.56h-2.983v3.008zM12.853 14.008h2.984v-3.007h-2.984v3.008zM43.19 14.008h2.983v-3.007H43.19v3.008zM28.02 8.01h2.985V5H28.02v3.01z" fill="#fff"/></svg>