<svg data-name="Layer 1" xmlns="http://www.w3.org/2000/svg" width="187.14" height="187.14"><path d="M74.77 112.736a26.853 26.853 0 1 0 21.342-45.9q-1.267-.12-2.542-.119a26.735 26.735 0 0 0-13.384 3.568 27.01 27.01 0 0 0-9.656 9.491 8.194 8.194 0 0 1 1.223 4.525 9.307 9.307 0 0 1 2.985 11.936 9.287 9.287 0 0 1-2.261 2.837 8.22 8.22 0 0 1-2.927 6.5 27 27 0 0 0 5.22 7.162zM73.362 99.65v-.163l.047-.046zm20.208 2.69a8.758 8.758 0 1 1 1.35-.1 8.851 8.851 0 0 1-1.35.1zm-25.2-14.851c-.031.766-1.206.824-1.687.479-.384-.276-.222-.8-.059-1.161.18-.4.631-.907 1.127-.851.587.067.635 1.122.618 1.533zm-2.5 4.762c-.377.443-1.327-.284-.982-.746a1.01 1.01 0 0 1 1.208-.318c.375.234-.043.844-.23 1.064zm.072 11.856c-.86.455-1.7-.844-1.552-1.593.113-.579.914-.706 1.4-.713a1.765 1.765 0 0 1 .976.259.874.874 0 0 1 .462.578c.053.662-.804 1.212-1.29 1.469zm3.884-7.778c.265.726.45 2.1-.67 2.131-.476.014-.7-.4-.762-.821a1.707 1.707 0 0 1 .449-1.385c.315-.339.789-.445.979.075zm-4.968-12.014c-.984.206-.507-1.575.195-1.177.286.162.332.642.274.932-.048.238-.275.205-.469.245z" fill="#e9ba67"/><path d="M76.159 112.829a25.77 25.77 0 0 0 17.3 6.7 5.188 5.188 0 0 0 1.216-3.381c0-3.225-2.22-3.225-2.22-6.45s2.22-3.225 2.22-6.45v-.087a9.64 9.64 0 0 1-10.7-8.484h-.078c-2.953 0-3.2-1.859-5.7-2.174a11.265 11.265 0 0 1-3.7 7.333 8.443 8.443 0 0 1-3.613 6.371 26.057 26.057 0 0 0 4.327 5.717q.465.465.947.9" fill="#f553a8"/><path d="M116.149 92.46c-3.225 0-3.225 2.22-6.45 2.22s-3.225-2.22-6.45-2.22h-.089a9.885 9.885 0 0 1 .065 1.108 9.658 9.658 0 0 1-8.547 9.592v.087c0 3.225-2.22 3.225-2.22 6.45s2.22 3.225 2.22 6.45a5.188 5.188 0 0 1-1.216 3.381h.106a25.959 25.959 0 0 0 25.96-25.855 5.19 5.19 0 0 0-3.379-1.213z" fill="#6b3c32"/><path d="M83.909 93.57a9.658 9.658 0 0 1 8.553-9.593v-.08c0-3.226 2.22-3.226 2.22-6.451s-2.22-3.226-2.22-6.452a5.2 5.2 0 0 1 1.217-3.384h-.109a25.83 25.83 0 0 0-12.3 3.084 26.251 26.251 0 0 0-9.351 8.535 7.5 7.5 0 0 1 2.063 4.413s4.118 3.5 4.246 7.53a11.691 11.691 0 0 1-.035 1.335c2.5.315 2.747 2.174 5.7 2.174h.078a9.871 9.871 0 0 1-.062-1.111z" fill="#fffbe9"/><path d="M111.927 75.213a25.791 25.791 0 0 0-18.25-7.6 5.2 5.2 0 0 0-1.217 3.384c0 3.226 2.22 3.226 2.22 6.452s-2.22 3.225-2.22 6.451v.08a9.831 9.831 0 0 1 1.1-.065 9.658 9.658 0 0 1 9.593 8.55h.089c3.225 0 3.225 2.22 6.45 2.22s3.225-2.22 6.45-2.22a5.19 5.19 0 0 1 3.381 1.216v-.106a25.788 25.788 0 0 0-7.596-18.362z" fill="#3dc9fb"/><circle cx="89.016" cy="80.866" r=".513" fill="#5832ee"/><circle cx="89.343" cy="84.008" r=".513" fill="#32ee68"/><circle cx="92.206" cy="79.126" r=".513" fill="#fcb52b"/><circle cx="93.57" cy="78.244" r=".513" fill="#3dc9fb"/><circle cx="92.538" cy="80.705" r=".513" fill="#32ee68"/><circle cx="91.023" cy="81.177" r=".513" fill="#f553a8"/><circle cx="89.343" cy="82.51" r=".513" fill="#3dc9fb"/><circle cx="91.592" cy="83.293" r=".513" fill="#fcb52b"/><circle cx="92.46" cy="75.784" r=".513" fill="#ee3232"/><circle cx="93.509" cy="76.885" r=".513" fill="#5832ee"/><circle cx="91.466" cy="77.455" r=".513" fill="#f553a8"/><circle cx="89.125" cy="74.902" r=".513" fill="#32ee68"/><circle cx="90.155" cy="71.263" r=".513" fill="#3dc9fb"/><circle cx="91.466" cy="71.534" r=".513" fill="#fcb52b"/><circle cx="91.294" cy="70.007" r=".513" fill="#f553a8"/><circle cx="92.162" cy="68.543" r=".513" fill="#5832ee"/><circle cx="90.354" cy="68.751" r=".513" fill="#32ee68"/><circle cx="89.214" cy="70.123" r=".513" fill="#f553a8"/><circle cx="87.985" cy="68.983" r=".513" fill="#3dc9fb"/><circle cx="92.162" cy="73.48" r=".513" fill="#f553a8"/><circle cx="90.265" cy="73.083" r=".513" fill="#fdf035"/><circle cx="88.203" cy="78.807" r=".513" fill="#f553a8"/><circle cx="87.175" cy="79.947" r=".513" fill="#32ee68"/><circle cx="86.437" cy="78.459" r=".513" fill="#fdf035"/><circle cx="90.092" cy="79.726" r=".513" fill="#32ee68"/><circle cx="89.695" cy="78.274" r=".513" fill="#3dc9fb"/><circle cx="88.086" cy="76.749" r=".513" fill="#fcb52b"/><circle cx="87.435" cy="81.436" r=".513" fill="#fcb52b"/><circle cx="82.268" cy="72.57" r=".513" fill="#fcb52b"/><circle cx="85.629" cy="79.377" r=".513" fill="#3dc9fb"/><circle cx="85.629" cy="81.078" r=".513" fill="#f553a8"/><circle cx="81.84" cy="81.078" r=".513" fill="#32ee68"/><circle cx="84.67" cy="78.237" r=".513" fill="#ee3232"/><circle cx="83.607" cy="82.006" r=".513" fill="#3dc9fb"/><circle cx="82.792" cy="79.403" r=".513" fill="#fdf035"/><circle cx="83.776" cy="73.464" r=".513" fill="#fdf035"/><circle cx="85.629" cy="84.578" r=".513" fill="#f553a8"/><circle cx="80.484" cy="72.967" r=".513" fill="#f553a8"/><circle cx="85.429" cy="82.887" r=".513" fill="#5832ee"/><circle cx="85.999" cy="86.371" r=".513" fill="#fcb52b"/><circle cx="84.194" cy="83.457" r=".513" fill="#3dc9fb"/><circle cx="84.482" cy="85.801" r=".513" fill="#32ee68"/><circle cx="80.388" cy="80.866" r=".513" fill="#3dc9fb"/><circle cx="81.072" cy="79.403" r=".513" fill="#f553a8"/><circle cx="78.959" cy="79.973" r=".513" fill="#5832ee"/><circle cx="77.86" cy="81.078" r=".513" fill="#32ee68"/><circle cx="76.542" cy="81.825" r=".513" fill="#fcb52b"/><circle cx="75.551" cy="83.806" r=".513" fill="#5832ee"/><circle cx="78.959" cy="82.317" r=".513" fill="#f553a8"/><circle cx="80.502" cy="82.887" r=".513" fill="#ee3232"/><circle cx="77.86" cy="84.661" r=".513" fill="#3dc9fb"/><circle cx="76.663" cy="84.743" r=".513" fill="#fcb52b"/><circle cx="74.012" cy="80.356" r=".513" fill="#32ee68"/><circle cx="79.529" cy="84.23" r=".513" fill="#fdf035"/><circle cx="75.795" cy="79.843" r=".513" fill="#fdf035"/><circle cx="80.7" cy="85.971" r=".513" fill="#fcb52b"/><circle cx="78.959" cy="86.145" r=".513" fill="#5832ee"/><circle cx="79.71" cy="87.507" r=".513" fill="#32ee68"/><circle cx="80.704" cy="90.989" r=".513" fill="#5832ee"/><circle cx="83.53" cy="91.196" r=".513" fill="#ee3232"/><circle cx="83.342" cy="93.651" r=".513" fill="#f553a8"/><circle cx="83.037" cy="88.954" r=".513" fill="#3dc9fb"/><circle cx="79.197" cy="91.97" r=".513" fill="#3dc9fb"/><circle cx="82.009" cy="87.46" r=".513" fill="#f553a8"/><circle cx="93.57" cy="93.57" r="8.77" fill="none"/><circle cx="76.955" cy="83.08" r=".513" fill="#ee3232"/><circle cx="78.43" cy="87.871" r=".513" fill="#fcb52b"/><circle cx="79" cy="90.31" r=".513" fill="#f553a8"/><circle cx="80.812" cy="89.17" r=".513" fill="#fdf035"/><circle cx="81.439" cy="84.863" r=".513" fill="#5832ee"/><circle cx="82.009" cy="83.051" r=".513" fill="#f553a8"/><circle cx="82.96" cy="84.293" r=".513" fill="#fcb52b"/><circle cx="82.792" cy="85.971" r=".513" fill="#fdf035"/><circle cx="84.511" cy="88.075" r=".513" fill="#ee3232"/><circle cx="82.009" cy="90.245" r=".513" fill="#fcb52b"/><circle cx="82.009" cy="91.941" r=".513" fill="#32ee68"/><circle cx="80.869" cy="92.834" r=".513" fill="#fcb52b"/><path d="M81.578 99.3a.444.444 0 0 1-.343-.163L79.7 97.274a.444.444 0 0 1 .687-.563l1.531 1.865a.444.444 0 0 1-.343.726z" fill="#fdf035"/><path d="M81.339 103.688a.444.444 0 0 1-.333-.738l1.6-1.808a.444.444 0 1 1 .665.588l-1.6 1.808a.441.441 0 0 1-.332.15zm-7.023 4.288a.445.445 0 0 1-.438-.375l-.378-2.383a.444.444 0 0 1 .877-.14l.378 2.384a.443.443 0 0 1-.368.508.425.425 0 0 1-.071.006z" fill="#3dc9fb"/><path d="M82.467 108.864a.445.445 0 0 1-.333-.738l1.6-1.808a.444.444 0 1 1 .665.588l-1.6 1.808a.444.444 0 0 1-.332.15zm-5.392-6.284h-.011a.444.444 0 0 1-.433-.455l.064-2.569a.444.444 0 1 1 .888.022l-.064 2.569a.444.444 0 0 1-.444.433z" fill="#fffbe9"/><rect x="90.081" y="107.812" width=".888" height="3.458" rx=".444" fill="#fdf035"/><path d="M78.9 109.245a.44.44 0 0 1-.33-.148l-1.61-1.797a.444.444 0 0 1 .661-.593l1.609 1.8a.443.443 0 0 1-.33.74z" fill="#fff"/><path d="M86.951 114.735a.444.444 0 0 1-.069-.882l2.229-.351a.444.444 0 0 1 .138.877l-2.228.351a.42.42 0 0 1-.07.005z" fill="#3dc9fb"/><path d="M90.831 118.137a.444.444 0 0 1-.383-.668l1.14-1.947a.444.444 0 0 1 .766.449l-1.14 1.946a.443.443 0 0 1-.383.22zm-2.202-12.555a.445.445 0 0 1-.349-.169l-1.5-1.91a.444.444 0 1 1 .7-.55l1.506 1.91a.445.445 0 0 1-.349.719z" fill="#fffbe9"/><path d="M81.9 115.838h-.043a.445.445 0 0 1-.4-.484l.243-2.554a.444.444 0 0 1 .884.084l-.243 2.556a.445.445 0 0 1-.441.398z" fill="#fdf035"/><circle cx="84.859" cy="72.34" r=".513" fill="#32ee68"/><circle cx="85.999" cy="71.534" r=".513" fill="#fcb52b"/><circle cx="86.794" cy="73.218" r=".513" fill="#fdf035"/><circle cx="88.278" cy="71.345" r=".513" fill="#5832ee"/><circle cx="88.446" cy="73.316" r=".513" fill="#3dc9fb"/><circle cx="89.695" cy="76.749" r=".513" fill="#5832ee"/><circle cx="91.022" cy="74.902" r=".513" fill="#fcb52b"/><circle cx="87.138" cy="70.284" r=".513" fill="#f553a8"/><circle cx="85.629" cy="70.007" r=".513" fill="#ee3232"/><circle cx="84.289" cy="70.284" r=".513" fill="#3dc9fb"/><circle cx="83.037" cy="71.424" r=".513" fill="#5832ee"/><circle cx="87.633" cy="84.661" r=".513" fill="#5832ee"/><circle cx="87.175" cy="82.887" r=".513" fill="#ee3232"/><circle cx="84.1" cy="79.973" r=".513" fill="#fcb52b"/><circle cx="85.999" cy="76.749" r=".513" fill="#5832ee"/><circle cx="83.682" cy="76.5" r=".513" fill="#5832ee"/><circle cx="85.116" cy="75.723" r=".513" fill="#3dc9fb"/><circle cx="75.281" cy="76.703" r=".513" fill="#f553a8"/><circle cx="76.542" cy="75.826" r=".513" fill="#32ee68"/><circle cx="81.219" cy="71.554" r=".513" fill="#32ee68"/><circle cx="76.542" cy="77.443" r=".513" fill="#fdf035"/><circle cx="85.629" cy="74.118" r=".513" fill="#32ee68"/><circle cx="73.87" cy="77.724" r=".513" fill="#3dc9fb"/><circle cx="74.928" cy="78.734" r=".513" fill="#fcb52b"/><circle cx="77.055" cy="74.389" r=".513" fill="#fcb52b"/><circle cx="78.232" cy="77.524" r=".513" fill="#3dc9fb"/><circle cx="78.304" cy="75.076" r=".513" fill="#f553a8"/><circle cx="81.494" cy="75.82" r=".513" fill="#32ee68"/><circle cx="79.423" cy="78.613" r=".513" fill="#ee3232"/><circle cx="80.484" cy="74.631" r=".513" fill="#3dc9fb"/><circle cx="80.687" cy="77.351" r=".513" fill="#fdf035"/><circle cx="78.91" cy="73.36" r=".513" fill="#5832ee"/><circle cx="82.362" cy="77.742" r=".513" fill="#f553a8"/><circle cx="82.277" cy="73.977" r=".513" fill="#f553a8"/><circle cx="73.114" cy="79.063" r=".513" fill="#5832ee"/><circle cx="83.607" cy="75.076" r=".513" fill="#ee3232"/><circle cx="79.197" cy="76.236" r=".513" fill="#fcb52b"/><circle cx="76.961" cy="79.208" r=".513" fill="#5832ee"/><circle cx="87.263" cy="74.902" r=".513" fill="#f553a8"/><circle cx="74.697" cy="82.183" r=".513" fill="#ee3232"/><circle cx="77.5" cy="86.262" r=".513" fill="#f553a8"/><circle cx="99.973" cy="107.868" r=".922" fill="#b68880"/><circle cx="114.927" cy="104.144" r=".564" fill="#b68880"/><circle cx="108.954" cy="101.586" r=".564" fill="#b68880"/><circle cx="105.508" cy="95.85" r=".564" fill="#b68880"/><circle cx="97.296" cy="105.22" r=".806" fill="#b68880"/><circle cx="112.816" cy="97.632" r=".519" fill="#b68880"/><circle cx="102.62" cy="113.487" r=".586" fill="#b68880"/><circle cx="99.051" cy="116.74" r=".564" fill="#b68880"/><circle cx="103.475" cy="104.144" r=".564" fill="#b68880"/><circle cx="109.374" cy="106.595" r=".922" fill="#b68880"/><path d="M104.945 100.488a.443.443 0 0 1-.317-.754 4.492 4.492 0 0 1 2.372-1.17.444.444 0 0 1 .173.871 3.676 3.676 0 0 0-1.907.92.442.442 0 0 1-.321.133zm2.337 12.412a.445.445 0 0 1-.444-.43 3.7 3.7 0 0 0-.736-1.95.444.444 0 1 1 .725-.513 4.541 4.541 0 0 1 .9 2.435.444.444 0 0 1-.43.458zm9.39-14.456a.443.443 0 0 1-.443-.437 3.7 3.7 0 0 0-.7-1.958.444.444 0 0 1 .734-.5 4.517 4.517 0 0 1 .855 2.445.443.443 0 0 1-.437.45zm-18.641 13.64a.44.44 0 0 1-.142-.023 3.97 3.97 0 0 1-2.143-1.817.444.444 0 1 1 .774-.435 3.07 3.07 0 0 0 1.652 1.41.444.444 0 0 1-.141.865z" fill="#b68880"/><path d="M103.985 70.186a26.183 26.183 0 0 1 1.895 11.232 83.127 83.127 0 0 1-1.863 11.207.444.444 0 0 0 .323.538.457.457 0 0 0 .108.014.446.446 0 0 0 .431-.337 84.3 84.3 0 0 0 1.885-11.34 26.432 26.432 0 0 0-1.8-11.266c-.315-.154-.633-.3-.955-.444a.443.443 0 0 0-.024.396zm4.791 11.887c.144 1.145.293 2.329.385 3.564a26.464 26.464 0 0 1-.826 8.9.443.443 0 1 0 .846.266 26.828 26.828 0 0 0 .866-9.236c-.094-1.258-.244-2.453-.39-3.609-.446-3.546-.8-6.348.81-8.063a.227.227 0 0 0 .018-.025c-.224-.193-.452-.38-.681-.565-1.876 2.024-1.483 5.15-1.028 8.768zm2.79-7.214c.029.063 2.887 7.2-.4 19.531a.445.445 0 0 0 .315.544.454.454 0 0 0 .115.015.444.444 0 0 0 .428-.33c2.734-10.268 1.385-16.449.718-18.549q-.4-.436-.818-.857l-.14-.14a7.166 7.166 0 0 0-.218-.214zm3.428 13.607a30.857 30.857 0 0 0 .417 4.528.443.443 0 0 0 .436.366.539.539 0 0 0 .079-.007.444.444 0 0 0 .359-.515 30.468 30.468 0 0 1-.4-4.382c-.033-2.793.486-4.579 1.463-5.03a.431.431 0 0 0 .105-.071q-.165-.389-.344-.771a.419.419 0 0 0-.132.036c-1.356.624-2.022 2.591-1.983 5.846zM96.263 75.038c-.16 1.127-.343 2.175-.519 3.188a21.919 21.919 0 0 0-.551 5.825q.468.079.92.2a.446.446 0 0 0 0-.081 19.5 19.5 0 0 1 .511-5.794c.177-1.021.361-2.075.523-3.217a13.869 13.869 0 0 0-1.236-7.448c-.307-.027-.615-.05-.924-.066a.439.439 0 0 0 .042.285 13.183 13.183 0 0 1 1.234 7.108zm3.979 6.298a10.43 10.43 0 0 1-.983 4.434q.366.267.7.567a10.815 10.815 0 0 0 1.166-4.979 21.506 21.506 0 0 0-.529-4.834 15.056 15.056 0 0 1-.412-3.8 6.626 6.626 0 0 1 1.172-3.713.439.439 0 0 0 .1-.186c-.29-.091-.58-.179-.873-.261a7.756 7.756 0 0 0-1.283 4.104 15.719 15.719 0 0 0 .426 4.025 20.519 20.519 0 0 1 .516 4.643z" fill="#6b3c32"/></svg>