<?xml version="1.0" standalone="no"?>
<!DOCTYPE svg PUBLIC "-//W3C//DTD SVG 20010904//EN"
 "http://www.w3.org/TR/2001/REC-SVG-20010904/DTD/svg10.dtd">
<svg version="1.0" xmlns="http://www.w3.org/2000/svg"
 width="600.000000pt" height="600.000000pt" viewBox="0 0 600.000000 600.000000"
 preserveAspectRatio="xMidYMid meet">
<metadata>
Created by potrace 1.11, written by Peter Selinger 2001-2013
</metadata>
<g transform="translate(0.000000,600.000000) scale(0.100000,-0.100000)"
fill="#000000" stroke="none">
<path d="M2838 5956 c-1 -2 -47 -7 -100 -10 -53 -4 -107 -9 -120 -11 -13 -3
-43 -7 -68 -10 -50 -5 -160 -27 -259 -51 -36 -9 -73 -17 -82 -19 -28 -5 -290
-94 -324 -109 -16 -7 -68 -31 -115 -51 -101 -45 -182 -88 -305 -162 -109 -65
-124 -75 -144 -90 -9 -7 -55 -40 -102 -75 -197 -144 -393 -336 -577 -565 -12
-15 -61 -85 -108 -155 l-85 -127 30 -58 c67 -130 99 -248 105 -391 2 -48 6
-55 42 -85 218 -178 362 -424 391 -672 39 -324 -58 -618 -281 -853 -60 -63
-71 -80 -72 -111 -6 -161 -49 -310 -130 -450 -27 -47 -99 -135 -150 -185 l-44
-42 60 -108 c393 -706 1058 -1227 1823 -1426 20 -6 54 -14 75 -20 86 -23 262
-53 382 -66 238 -25 568 -15 780 22 14 2 41 7 60 10 124 18 452 113 585 169
146 62 380 180 416 211 8 8 19 14 23 14 12 0 194 128 296 208 174 137 429 407
560 592 133 188 242 387 327 593 61 149 129 362 147 457 2 14 9 45 14 70 6 25
13 63 16 85 4 23 8 52 11 65 3 14 8 52 11 85 3 33 10 92 14 130 8 73 5 471 -3
515 -3 14 -8 56 -12 95 -4 38 -8 72 -10 75 -2 3 -6 30 -10 60 -4 30 -9 58 -11
61 -2 3 -6 21 -9 40 -37 215 -207 671 -297 802 -11 15 -17 27 -14 27 12 0
-214 343 -244 370 -3 3 -32 38 -64 79 -55 69 -245 265 -326 337 -127 112 -333
257 -495 349 -109 61 -301 155 -318 155 -7 0 -17 4 -22 9 -13 12 -260 95 -358
121 -125 33 -279 62 -402 75 -33 4 -73 9 -90 12 -34 5 -411 13 -417 9z m237
-2000 c439 -33 800 -377 870 -831 8 -49 7 -228 0 -270 -41 -218 -128 -389
-275 -536 -286 -287 -713 -365 -1077 -197 -351 161 -576 513 -567 888 4 198
72 400 188 560 153 212 416 361 682 386 38 4 71 8 72 10 2 1 9 1 15 -1 7 -2
48 -6 92 -9z"/>
</g>
</svg>
