<svg width="50" height="50" xmlns="http://www.w3.org/2000/svg"><path d="M35.817 22.13V31.1c0 .497-.182.923-.546 1.277a1.815 1.815 0 0 1-1.313.531h-17.1c-.51 0-.948-.177-1.312-.531A1.717 1.717 0 0 1 15 31.101V22.13c.34.369.732.697 1.173.983 2.804 1.853 4.728 3.152 5.774 3.898.441.316.8.563 1.074.74.275.177.641.358 1.098.542.457.185.883.277 1.278.277h.023c.395 0 .821-.092 1.278-.277a6.71 6.71 0 0 0 1.098-.542c.275-.177.633-.424 1.074-.74 1.317-.927 3.245-2.226 5.785-3.898a6.359 6.359 0 0 0 1.162-.983zm0-3.322c0 .595-.19 1.164-.57 1.706a5.448 5.448 0 0 1-1.416 1.39l-5.437 3.672-.494.345c-.251.177-.46.32-.627.429-.167.11-.368.232-.604.367a3.565 3.565 0 0 1-.668.305c-.21.068-.403.102-.58.102h-.024c-.178 0-.372-.034-.581-.102a3.565 3.565 0 0 1-.668-.305 12.108 12.108 0 0 1-.604-.367c-.166-.11-.376-.252-.627-.43a51.49 51.49 0 0 0-.494-.344c-.705-.482-1.72-1.17-3.044-2.062a536.235 536.235 0 0 1-2.38-1.61c-.481-.317-.934-.752-1.36-1.305-.426-.554-.639-1.068-.639-1.543 0-.587.16-1.077.482-1.468.321-.392.78-.588 1.377-.588h17.1c.503 0 .938.177 1.306.531.368.354.552.78.552 1.277z" fill="#FFFCE9" fill-rule="nonzero"/></svg>