<svg width="50" height="50" xmlns="http://www.w3.org/2000/svg"><path d="M19.955 20.611v13.735H15.27V20.611h4.685zm.298-4.241c.01.675-.23 1.238-.717 1.69-.487.454-1.128.68-1.924.68h-.028c-.776 0-1.4-.226-1.874-.68-.473-.452-.71-1.015-.71-1.69 0-.684.244-1.25.731-1.698.488-.448 1.124-.672 1.91-.672.785 0 1.415.224 1.888.672.473.448.715 1.014.724 1.698zm16.555 10.104v7.872h-4.67V27c0-.97-.193-1.73-.576-2.28-.383-.55-.982-.824-1.796-.824-.596 0-1.096.16-1.498.478a2.954 2.954 0 0 0-.901 1.185c-.105.277-.157.651-.157 1.123v7.664h-4.67c.018-3.687.028-6.676.028-8.967 0-2.292-.005-3.66-.015-4.103l-.014-.665h4.671v1.996h-.028c.19-.296.383-.555.582-.776a6 6 0 0 1 .802-.721c.336-.259.748-.46 1.236-.603a5.757 5.757 0 0 1 1.625-.215c1.619 0 2.92.525 3.905 1.573.984 1.05 1.476 2.585 1.476 4.609z" fill="#FFFCE9" fill-rule="nonzero"/></svg>