<svg width="1441" height="39" viewBox="0 0 1441 39" fill="none" xmlns="http://www.w3.org/2000/svg">
<path id="Path 3" fill-rule="evenodd" clip-rule="evenodd" d="M0.000219528 39C0.000219528 39 -0.000219528 12.4878 0.000219528 12.488C66.7794 39.3539 170.616 39.3539 225.043 34.125C279.469 28.8961 368.256 14.3015 408.19 12.488C446.227 10.7607 489.085 24.5702 527.509 22.9594C597.525 20.0241 642.127 2.53198 721.943 0.182079C806.678 -2.31265 851.411 21.6305 922.793 22.9594C994.175 24.2883 1014.98 3.26968 1084.87 3.26968C1154.75 3.26968 1195.66 24.1863 1250.28 28.2555C1304.89 32.3246 1368.55 34.125 1441 14.6459V39H0.000219528Z" fill="white"/>
</svg>
