<svg width="60" height="60" viewBox="0 0 60 60" fill="none" xmlns="http://www.w3.org/2000/svg">
<path fill-rule="evenodd" clip-rule="evenodd" d="M28.1373 13.614C22.9699 14.2064 18.7052 18.3324 17.927 23.5161C17.4009 27.0188 18.4106 30.2791 20.3686 32.7388L21.6304 34.1983C23.4051 36.2488 24.3841 38.8813 24.3841 41.6024H34.6427C34.6427 38.8813 35.6202 36.2488 37.3949 34.1983L38.6582 32.7388C40.2674 30.7149 41.2361 28.1503 41.2361 25.3524C41.2361 18.3693 35.2274 12.8 28.1373 13.614Z" stroke="white" stroke-width="2.5"/>
<path d="M24.3841 46.7733H34.6427" stroke="white" stroke-width="2.5" stroke-linecap="square"/>
<path d="M24.3841 51.9452H34.6427" stroke="white" stroke-width="2.5"/>
<path d="M24.3841 46.7733H34.6427" stroke="white" stroke-width="2.5" stroke-linecap="square"/>
<path fill-rule="evenodd" clip-rule="evenodd" d="M14.6136 41.1312H17.5974V38.1219H14.6136V41.1312Z" fill="white"/>
<path fill-rule="evenodd" clip-rule="evenodd" d="M41.4295 41.1312H44.4133V38.1219H41.4295V41.1312Z" fill="white"/>
<path fill-rule="evenodd" clip-rule="evenodd" d="M8.75002 27.5683H11.7338V24.5605H8.75002V27.5683Z" fill="white"/>
<path fill-rule="evenodd" clip-rule="evenodd" d="M47.2916 27.5683H50.2754V24.5605H47.2916V27.5683Z" fill="white"/>
<path fill-rule="evenodd" clip-rule="evenodd" d="M12.8534 14.0085H15.8372V11.0007H12.8534V14.0085Z" fill="white"/>
<path fill-rule="evenodd" clip-rule="evenodd" d="M43.1897 14.0085H46.1735V11.0007H43.1897V14.0085Z" fill="white"/>
<path fill-rule="evenodd" clip-rule="evenodd" d="M28.0201 8.0092H31.0054V5H28.0201V8.0092Z" fill="white"/>
</svg>
