<svg width="60" height="60" viewBox="0 0 60 60" fill="none" xmlns="http://www.w3.org/2000/svg">
<path d="M19.2034 21.3029V27.3905L24.5753 21.3029H28.0246L30.3204 27.8911L32.6163 21.3029H36.0656L41.439 27.3905V21.3029H41.6617C45.7144 21.3029 48.9993 18.0165 48.9993 13.9653C48.9993 11.4513 47.7354 9.23221 45.8081 7.90996C45.2184 7.5076 44.5703 7.18663 43.8747 6.96703C43.1759 6.74588 42.4326 6.6261 41.6617 6.6261H18.9792C14.928 6.6261 11.6416 9.91253 11.6416 13.9653C11.6416 16.4301 12.8578 18.6108 14.7222 19.9407" stroke="white" stroke-width="2.5" stroke-linejoin="round"/>
<path fill-rule="evenodd" clip-rule="evenodd" d="M33.7658 35.2772C33.7658 37.1785 32.2224 38.7203 30.3212 38.7203C28.42 38.7203 26.8766 37.1785 26.8766 35.2772C26.8766 33.3745 28.42 31.8326 30.3212 31.8326C32.2224 31.8326 33.7658 33.3745 33.7658 35.2772Z" stroke="white" stroke-width="2.5"/>
<path d="M34.6566 45.6659V50.4067C34.6566 51.4294 35.4859 52.2572 36.5072 52.2572C37.5284 52.2572 38.3577 51.4294 38.3577 50.4067V44.1302C38.3577 41.1433 35.9359 38.7214 32.9489 38.7214H30.3213" stroke="white" stroke-width="2.5" stroke-linecap="round"/>
<path d="M34.6565 50.4065V55.138" stroke="white" stroke-width="2.5" stroke-linecap="round"/>
<path fill-rule="evenodd" clip-rule="evenodd" d="M44.7513 33.7685C44.7513 35.3457 43.472 36.6234 41.8948 36.6234C40.3161 36.6234 39.0369 35.3457 39.0369 33.7685C39.0369 32.1898 40.3161 30.9121 41.8948 30.9121C43.472 30.9121 44.7513 32.1898 44.7513 33.7685Z" stroke="white" stroke-width="2.5"/>
<path d="M46.2315 43.5708V48.3115C46.2315 49.3328 47.0592 50.1605 48.0805 50.1605C49.1033 50.1605 49.931 49.3328 49.931 48.3115V42.0335C49.931 39.0466 47.5092 36.6248 44.5222 36.6248H41.8946" stroke="white" stroke-width="2.5" stroke-linecap="round"/>
<path d="M46.2315 48.3113V53.0413" stroke="white" stroke-width="2.5" stroke-linecap="round"/>
<path fill-rule="evenodd" clip-rule="evenodd" d="M15.8905 33.7685C15.8905 35.3457 17.1698 36.6234 18.747 36.6234C20.3257 36.6234 21.6049 35.3457 21.6049 33.7685C21.6049 32.1898 20.3257 30.9121 18.747 30.9121C17.1698 30.9121 15.8905 32.1898 15.8905 33.7685Z" stroke="white" stroke-width="2.5"/>
<path d="M14.4104 43.5708V48.3115C14.4104 49.3328 13.5826 50.1605 12.5614 50.1605C11.5386 50.1605 10.7108 49.3328 10.7108 48.3115V42.0335C10.7108 39.0466 13.1326 36.6248 16.1196 36.6248H18.7472" stroke="white" stroke-width="2.5" stroke-linecap="round"/>
<path d="M14.4104 48.3113V53.0413" stroke="white" stroke-width="2.5" stroke-linecap="round"/>
<path d="M25.9853 45.6659V50.4067C25.9853 51.4294 25.156 52.2572 24.1347 52.2572C23.1135 52.2572 22.2842 51.4294 22.2842 50.4067V44.1302C22.2842 41.1433 24.706 38.7214 27.693 38.7214H30.3206" stroke="white" stroke-width="2.5" stroke-linecap="round"/>
<path d="M25.9852 50.4065V55.138" stroke="white" stroke-width="2.5" stroke-linecap="round"/>
<path d="M56.0876 3.93164L4.3033 23.9712" stroke="white" stroke-width="2.5"/>
</svg>
