<svg viewBox="0 0 48 48" xmlns="http://www.w3.org/2000/svg"><g stroke="#F84FAA" stroke-width="2" fill="none" fill-rule="evenodd"><path d="M41.6 28.59c0 9.02-7.34 16.34-16.4 16.34-9.05 0-16.4-7.32-16.4-16.34 0-9.03 7.35-16.34 16.4-16.34 9.06 0 16.4 7.31 16.4 16.34zM15.92 26.32a2.73 2.73 0 1 1 5.38-.95M29.11 25.37a2.73 2.73 0 0 1 5.38.95M17.48 31.31a8.2 8.2 0 0 0 15.45 0M5.5 11v8M9.5 15h-8M40.54 41.15v5.1M43.1 43.7h-5.12M19.78 2.13c.14 1.25-.46 1.31-.32 2.56s.74 1.19.88 2.44-.46 1.31-.32 2.56M46.17 15.34c-.7.49-.89.21-1.59.7-.7.48-.5.75-1.2 1.24-.71.48-.9.2-1.6.69M8.27 41.45c-.7.48-.89.2-1.59.69-.7.48-.5.76-1.2 1.24-.71.49-.9.21-1.6.7"/></g></svg>