<svg viewBox="0 0 48 48" xmlns="http://www.w3.org/2000/svg"><g transform="translate(5 6)" fill="none" fill-rule="evenodd"><path d="M11.72 13.8c.5.23.86.55 1.12.96.25.4.38.86.38 1.37a2.13 2.13 0 0 1-1.71 2.24v.07c1.26.4 1.89 1.18 1.89 2.34 0 .55-.13 1.04-.39 1.48-.26.43-.63.77-1.13 1a4 4 0 0 1-1.77.37 4.06 4.06 0 0 1-2.68-.82c-.66-.55-1.02-1.38-1.07-2.5h2.3c.03.43.15.76.37 1.01s.54.37.97.37c.34 0 .6-.1.8-.3.2-.2.3-.46.3-.78 0-.8-.58-1.19-1.74-1.19h-.44v-1.9h.42c1.05.02 1.57-.35 1.57-1.1 0-.33-.1-.58-.27-.76a.99.99 0 0 0-.73-.27c-.33 0-.6.11-.79.34-.19.22-.3.52-.33.9H6.5c.04-1.03.36-1.81.96-2.36a3.6 3.6 0 0 1 2.52-.82c.68 0 1.27.12 1.75.35M17.59 21.23c.24.26.59.4 1.05.4.41 0 .74-.12.97-.35.24-.23.36-.56.36-1 0-.43-.12-.77-.36-1a1.35 1.35 0 0 0-.98-.35c-.4 0-.73.11-1 .33-.27.23-.4.54-.4.95 0 .42.12.76.36 1.02m1.72-5.58c-.19-.2-.46-.3-.81-.3-.53 0-.92.24-1.14.73a5.4 5.4 0 0 0-.31 2.25c.15-.37.42-.67.8-.88a2.7 2.7 0 0 1 1.34-.32c.92 0 1.65.27 2.19.82.53.55.8 1.34.8 2.37 0 .65-.13 1.22-.4 1.72s-.66.9-1.18 1.17c-.52.28-1.15.42-1.88.42-1.43 0-2.41-.44-2.96-1.31a6.85 6.85 0 0 1-.81-3.64c0-1.78.29-3.1.87-3.94.58-.84 1.52-1.26 2.83-1.26 1.04 0 1.82.29 2.35.87.54.57.84 1.3.9 2.19H19.7c-.07-.4-.2-.69-.38-.89M28.84 18.6a5 5 0 0 0-.3-1.99c-.21-.45-.62-.69-1.23-.69-.62 0-1.03.24-1.24.7a4.9 4.9 0 0 0-.32 1.98 5 5 0 0 0 .32 2c.2.47.62.7 1.24.7.6 0 1.02-.23 1.22-.7.21-.47.31-1.13.31-2m-5.42 0c0-1.5.31-2.7.93-3.57.62-.88 1.6-1.32 2.96-1.32 1.35 0 2.33.44 2.95 1.32.62.88.94 2.07.94 3.57 0 1.51-.32 2.71-.94 3.6-.62.88-1.6 1.32-2.95 1.32-1.36 0-2.34-.44-2.96-1.33a6.16 6.16 0 0 1-.93-3.59" fill="#31C9FF"/><path d="M37.31 18.43a18.54 18.54 0 0 1-18.65 18.43A18.54 18.54 0 0 1 0 18.43 18.54 18.54 0 0 1 18.66.01C28.96 0 37.3 8.26 37.3 18.43z" stroke="#31C9FF" stroke-width="2"/><path d="M18.66 27.34C8.36 27.34 0 23.35 0 18.44c0-4.93 8.36-8.92 18.66-8.92 5.68 0 10.77 1.21 14.19 3.13.61.34 1.17.7 1.67 1.1.5.37.92.76 1.29 1.17a5.25 5.25 0 0 1 1.5 3.51c0 4.92-8.35 8.91-18.65 8.91z" stroke="#31C9FF" stroke-width="2"/><circle stroke="#31C9FF" stroke-width="2" fill="#FFF" cx="34" cy="14" r="2"/><path d="M10.26 11.67C11.58 4.84 14.85 0 18.66 0c2.49 0 4.75 2.06 6.38 5.4" stroke="#31C9FF" stroke-width="2" stroke-linecap="round"/><path d="M26.91 7.86c0 .45-.37.82-.82.82a.82.82 0 0 1-.83-.82c0-.45.37-.82.83-.82.45 0 .82.37.82.82" fill="#31C9FF"/><path d="M26.91 25.2c-1.32 6.83-4.58 11.66-8.39 11.66-2.49 0-4.75-2.07-6.38-5.4" stroke="#31C9FF" stroke-width="2" stroke-linecap="round"/><path d="M10.26 29.22c0-.45.38-.82.83-.82.46 0 .83.37.83.82 0 .45-.37.82-.83.82a.82.82 0 0 1-.83-.82" fill="#31C9FF"/></g></svg>