<svg width="60" height="60" viewBox="0 0 60 60" fill="none" xmlns="http://www.w3.org/2000/svg">
<path fill-rule="evenodd" clip-rule="evenodd" d="M52.0071 34.4842C52.0071 45.7645 42.8294 54.9101 31.5095 54.9101C20.1882 54.9101 11.0104 45.7645 11.0104 34.4842C11.0104 23.2025 20.1882 14.0582 31.5095 14.0582C42.8294 14.0582 52.0071 23.2025 52.0071 34.4842Z" stroke="white" stroke-width="2.5"/>
<path d="M19.9008 31.6445C19.5722 29.7926 20.814 28.0272 22.6725 27.7012C24.5294 27.3738 26.301 28.6099 26.6296 30.4633" stroke="white" stroke-width="2.5"/>
<path d="M36.3885 30.4629C36.7171 28.6109 38.4887 27.3734 40.3457 27.7008C42.2055 28.0282 43.4445 29.7922 43.1174 31.6441" stroke="white" stroke-width="2.5"/>
<path d="M21.8555 37.8884C23.2638 41.8519 27.0487 44.6976 31.5095 44.6976C35.9688 44.6976 39.7537 41.8519 41.162 37.8884" stroke="white" stroke-width="2.5"/>
<path d="M6.87497 12.5V22.5" stroke="white" stroke-width="2.5"/>
<path d="M11.875 17.5H1.87496" stroke="white" stroke-width="2.5"/>
<path d="M50.6757 50.1875V56.5683" stroke="white" stroke-width="2.5"/>
<path d="M53.8778 53.3778H47.4732" stroke="white" stroke-width="2.5"/>
<path d="M24.7191 1.41101C24.8957 2.97159 24.1474 3.05524 24.324 4.61582C24.4991 6.17928 25.2474 6.09563 25.424 7.65765C25.5991 9.22111 24.8522 9.30476 25.0288 10.8682" stroke="white" stroke-width="2.5"/>
<path d="M57.7162 17.9299C56.842 18.5328 56.6031 18.1881 55.7275 18.791C54.8518 19.3968 55.0906 19.74 54.2135 20.3458C53.3364 20.9501 53.0976 20.604 52.2205 21.2083" stroke="white" stroke-width="2.5"/>
<path d="M10.3416 50.5636C9.46739 51.1665 9.22713 50.8218 8.35292 51.4247C7.47726 52.0304 7.71608 52.3737 6.83897 52.978C5.96187 53.5838 5.72305 53.2391 4.84595 53.842" stroke="white" stroke-width="2.5"/>
</svg>
