<svg width="48" height="48" xmlns="http://www.w3.org/2000/svg"><g stroke="#4C51F0" stroke-width="2" fill="none" fill-rule="evenodd"><path d="M15.36 17.04v4.87l4.3-4.87h2.76l1.84 5.27 1.83-5.27h2.76l4.3 4.87v-4.87h.18a5.87 5.87 0 0 0 0-11.74H15.18a5.87 5.87 0 0 0-3.4 10.65" stroke-linejoin="round"/><path d="M27.01 28.22a2.76 2.76 0 1 1-5.5 0 2.76 2.76 0 0 1 5.5 0z"/><path d="M27.73 36.53v3.8a1.48 1.48 0 0 0 2.96 0V35.3a4.33 4.33 0 0 0-4.33-4.32h-2.1M27.73 40.33v3.78" stroke-linecap="round"/><path d="M35.8 27.01a2.28 2.28 0 1 1-4.57 0 2.28 2.28 0 0 1 4.57 0z"/><path d="M36.99 34.86v3.79a1.48 1.48 0 1 0 2.95 0v-5.02a4.33 4.33 0 0 0-4.32-4.33h-2.1M36.99 38.65v3.78" stroke-linecap="round"/><path d="M12.71 27.01a2.28 2.28 0 1 0 4.57 0 2.28 2.28 0 0 0-4.57 0z"/><path d="M11.53 34.86v3.79a1.48 1.48 0 1 1-2.96 0v-5.02a4.33 4.33 0 0 1 4.33-4.33H15M11.53 38.65v3.78M20.79 36.53v3.8a1.48 1.48 0 0 1-2.96 0V35.3a4.33 4.33 0 0 1 4.32-4.32h2.1M20.79 40.33v3.78" stroke-linecap="round"/><path d="M44.87 3.15L3.44 19.18"/></g></svg>