<svg width="60" height="60" viewBox="0 0 60 60" fill="none" xmlns="http://www.w3.org/2000/svg">
<path fill-rule="evenodd" clip-rule="evenodd" d="M20.9047 24.1256C21.5155 24.4164 21.9786 24.8151 22.2969 25.3218C22.6123 25.8284 22.7715 26.3999 22.7715 27.0361C22.7715 27.822 22.5665 28.4553 22.1578 28.9332C21.7477 29.4111 21.2387 29.7133 20.6279 29.8371V29.9221C22.2066 30.4244 22.9966 31.3974 22.9966 32.844C22.9966 33.5378 22.8346 34.1553 22.512 34.6965C22.1894 35.2363 21.7191 35.658 21.104 35.9589C20.486 36.2611 19.7461 36.4123 18.8815 36.4123C17.475 36.4123 16.3609 36.0697 15.5364 35.386C14.712 34.7052 14.2661 33.663 14.1972 32.2625H17.0835C17.1065 32.7965 17.257 33.2183 17.5337 33.5263C17.809 33.8329 18.2134 33.9883 18.7439 33.9883C19.1697 33.9883 19.5067 33.8631 19.7547 33.6112C20.0028 33.3608 20.1275 33.0369 20.1275 32.6382C20.1275 31.6479 19.4006 31.1527 17.9481 31.1527H17.3947V28.7792H17.9309C19.2328 28.8022 19.8852 28.3416 19.8852 27.3959C19.8852 26.9857 19.7719 26.6705 19.5468 26.4474C19.3217 26.2257 19.0206 26.1149 18.6392 26.1149C18.2248 26.1149 17.8965 26.2545 17.6542 26.5337C17.4119 26.813 17.2742 27.1858 17.2398 27.6521H14.3521C14.4094 26.3768 14.8123 25.398 15.5622 24.7158C16.3107 24.0335 17.3602 23.6909 18.7095 23.6909C19.5612 23.6909 20.2939 23.8363 20.9047 24.1256Z" fill="white"/>
<path fill-rule="evenodd" clip-rule="evenodd" d="M28.2341 33.4156C28.5337 33.7394 28.971 33.9021 29.5489 33.9021C30.0665 33.9021 30.4723 33.7596 30.7676 33.4746C31.0616 33.191 31.2078 32.775 31.2078 32.2281C31.2078 31.6825 31.0587 31.2637 30.759 30.9744C30.4579 30.6836 30.0493 30.5382 29.5317 30.5382C29.0356 30.5382 28.6212 30.6779 28.2857 30.9557C27.9516 31.2349 27.7853 31.6307 27.7853 32.1432C27.7853 32.6657 27.9358 33.0903 28.2341 33.4156ZM30.3862 26.4388C30.1497 26.1884 29.8141 26.0646 29.3754 26.0646C28.7072 26.0646 28.2312 26.3683 27.9487 26.9772C27.6663 27.586 27.5372 28.5231 27.5602 29.7869C27.7552 29.3191 28.0936 28.952 28.571 28.6857C29.0499 28.418 29.6062 28.2841 30.24 28.2841C31.3913 28.2841 32.3033 28.6282 32.9714 29.3162C33.6396 30.0057 33.9737 30.9931 33.9737 32.2799C33.9737 33.0874 33.8073 33.8057 33.4718 34.4304C33.1377 35.0579 32.6459 35.5444 31.995 35.8913C31.344 36.2382 30.5626 36.411 29.6521 36.411C27.8656 36.411 26.6325 35.8654 25.9529 34.7715C25.2718 33.6804 24.932 32.1662 24.932 30.2302C24.932 27.9991 25.2962 26.3582 26.0217 25.3046C26.7472 24.251 27.9287 23.7256 29.5661 23.7256C30.8565 23.7256 31.8358 24.0869 32.5054 24.8094C33.1722 25.5306 33.5478 26.446 33.6281 27.5501H30.8623C30.7805 27.0607 30.6228 26.6907 30.3862 26.4388Z" fill="white"/>
<path fill-rule="evenodd" clip-rule="evenodd" d="M42.3063 30.1278C42.3063 29.0468 42.1773 28.2191 41.9177 27.6434C41.6582 27.0691 41.1478 26.7812 40.3878 26.7812C39.615 26.7812 39.0974 27.0719 38.8322 27.652C38.5669 28.2335 38.4336 29.0583 38.4336 30.1278C38.4336 31.2102 38.5669 32.0436 38.8322 32.6294C39.0974 33.2167 39.615 33.5089 40.3878 33.5089C41.1478 33.5089 41.6582 33.2167 41.9177 32.6294C42.1773 32.0436 42.3063 31.2102 42.3063 30.1278ZM35.5286 30.1278C35.5286 28.2493 35.9157 26.761 36.6885 25.6628C37.4599 24.5645 38.693 24.0146 40.3878 24.0146C42.0697 24.0146 43.2999 24.5645 44.0785 25.6628C44.8556 26.761 45.2441 28.2493 45.2441 30.1278C45.2441 32.0177 44.8556 33.5161 44.0785 34.6187C43.2999 35.7227 42.0697 36.2754 40.3878 36.2754C38.693 36.2754 37.4599 35.7227 36.6885 34.6187C35.9157 33.5161 35.5286 32.0177 35.5286 30.1278Z" fill="white"/>
<path fill-rule="evenodd" clip-rule="evenodd" d="M52.8898 29.9154C52.8898 42.6354 42.4501 52.9458 29.573 52.9458C16.6944 52.9458 6.25613 42.6354 6.25613 29.9154C6.25613 17.197 16.6944 6.88513 29.573 6.88513C42.4501 6.88513 52.8898 17.197 52.8898 29.9154Z" stroke="white" stroke-width="2.5"/>
<path fill-rule="evenodd" clip-rule="evenodd" d="M48.75 26.875C50.1307 26.875 51.25 25.7557 51.25 24.375C51.25 22.9943 50.1307 21.875 48.75 21.875C47.3693 21.875 46.25 22.9943 46.25 24.375C46.25 25.7557 47.3693 26.875 48.75 26.875Z" stroke="white" stroke-width="2.5"/>
<path d="M19.0808 21.459C20.7311 12.9234 24.8075 6.88513 29.5721 6.88513C32.6864 6.88513 35.5067 9.46309 37.5456 13.6316" stroke="white" stroke-width="2.5" stroke-linecap="round"/>
<path fill-rule="evenodd" clip-rule="evenodd" d="M39.8935 16.7009C39.8935 17.2666 39.4304 17.7229 38.8598 17.7229C38.2877 17.7229 37.826 17.2666 37.826 16.7009C37.826 16.1367 38.2877 15.6804 38.8598 15.6804C39.4304 15.6804 39.8935 16.1367 39.8935 16.7009Z" fill="white"/>
<path d="M39.8936 38.3733C38.2433 46.9075 34.1669 52.9458 29.4023 52.9458C26.288 52.9458 23.4677 50.3678 21.4288 46.1993" stroke="white" stroke-width="2.5" stroke-linecap="round"/>
<path fill-rule="evenodd" clip-rule="evenodd" d="M19.0808 43.3999C19.0808 42.8357 19.5439 42.3794 20.1146 42.3794C20.6867 42.3794 21.1484 42.8357 21.1484 43.3999C21.1484 43.9656 20.6867 44.4219 20.1146 44.4219C19.5439 44.4219 19.0808 43.9656 19.0808 43.3999Z" fill="white"/>
<path d="M47.3079 22.6846C43.0312 20.2935 36.6724 18.7778 29.5726 18.7778C16.6955 18.7778 6.2558 23.7639 6.2558 29.9159C6.2558 36.0664 16.6955 41.0525 29.5726 41.0525C42.4498 41.0525 52.8895 36.0664 52.8895 29.9159C52.8895 28.3575 52.2196 26.874 51.01 25.5274" stroke="white" stroke-width="2.5"/>
<path fill-rule="evenodd" clip-rule="evenodd" d="M48.75 26.875C50.1307 26.875 51.25 25.7557 51.25 24.375C51.25 22.9943 50.1307 21.875 48.75 21.875C47.3693 21.875 46.25 22.9943 46.25 24.375C46.25 25.7557 47.3693 26.875 48.75 26.875Z" stroke="white" stroke-width="2.5"/>
</svg>
