<svg width="48" height="48" xmlns="http://www.w3.org/2000/svg"><g fill="none" fill-rule="evenodd"><path d="M22.51 10.9a9.45 9.45 0 0 0-6.22 15.3l1.01 1.16a9.06 9.06 0 0 1 2.2 5.92h8.21c0-2.18.79-4.28 2.2-5.92l1.02-1.17a9.46 9.46 0 0 0 2.06-5.9 9.4 9.4 0 0 0-10.48-9.4z" stroke="#DBA131" stroke-width="2"/><path d="M19.5 37.42h8.21" stroke="#DBA131" stroke-width="2" stroke-linecap="square"/><path d="M19.5 41.56h8.21" stroke="#DBA131" stroke-width="2"/><path d="M19.5 37.42h8.21" stroke="#DBA131" stroke-width="2" stroke-linecap="square"/><path fill="#DBA131" d="M11.7 32.9h2.38v-2.4h-2.39zM33.14 32.9h2.4v-2.4h-2.4zM7 22.05h2.39v-2.4H7zM37.83 22.05h2.39v-2.4h-2.39zM10.28 11.2h2.39V8.8h-2.39zM34.55 11.2h2.39V8.8h-2.39zM22.42 6.4h2.38V4h-2.38z"/></g></svg>