<svg width="60" height="60" viewBox="0 0 60 60" fill="none" xmlns="http://www.w3.org/2000/svg">
<path fill-rule="evenodd" clip-rule="evenodd" d="M50.7946 8.76803C50.7946 8.76803 37.5371 7.88428 26.9296 18.4905C18.9746 26.4468 14.5558 36.168 14.5558 36.168L18.9746 40.588L23.3946 45.0068C23.3946 45.0068 33.1171 40.588 41.0721 32.633C51.6783 22.0255 50.7946 8.76803 50.7946 8.76803Z" stroke="white" stroke-width="2.5" stroke-linejoin="round"/>
<path fill-rule="evenodd" clip-rule="evenodd" d="M40.1879 26.4462C38.2354 28.3987 35.0691 28.3987 33.1166 26.4462C31.1641 24.4937 31.1641 21.3275 33.1166 19.375C35.0691 17.4212 38.2354 17.4212 40.1879 19.375C42.1404 21.3275 42.1404 24.4937 40.1879 26.4462Z" stroke="white" stroke-width="2.5" stroke-linejoin="round"/>
<path d="M42.8496 9.64941C43.1246 11.5907 43.9983 13.4632 45.4908 14.9557C46.7083 16.1732 48.1808 16.9757 49.7346 17.3832" stroke="white" stroke-width="2.5" stroke-linejoin="round"/>
<path d="M21.798 24.4016L16.473 25.2541C15.2743 25.4454 14.253 26.2254 13.7505 27.3304L10.1355 35.2841L15.2955 34.6679" stroke="white" stroke-width="2.5" stroke-linejoin="round"/>
<path d="M35.1611 37.7646L34.3086 43.0909C34.1173 44.2884 33.3373 45.3096 32.2336 45.8109L24.2785 49.4271L24.8948 44.2671" stroke="white" stroke-width="2.5" stroke-linejoin="round"/>
<path d="M12.5585 41.5403L9.72353 44.3753" stroke="white" stroke-width="2.5" stroke-linecap="round" stroke-linejoin="round"/>
<path d="M18.9868 47.9685L14.7555 52.1998" stroke="white" stroke-width="2.5" stroke-linecap="round" stroke-linejoin="round"/>
<path d="M15.7726 44.7544L8.75006 51.7769" stroke="white" stroke-width="2.5" stroke-linecap="round" stroke-linejoin="round"/>
</svg>
