<?xml version="1.0" encoding="UTF-8"?>
<svg width="76px" height="76px" viewBox="0 0 76 76" version="1.1" xmlns="http://www.w3.org/2000/svg" xmlns:xlink="http://www.w3.org/1999/xlink">
    <!-- Generator: Sketch 55.1 (78136) - https://sketchapp.com -->
    <title>Artboard</title>
    <desc>Created with Sketch.</desc>
    <g id="Artboard" stroke="none" stroke-width="1" fill="none" fill-rule="evenodd">
        <path d="M22.1554252,51 C20.7184679,46.8518311 20,42.738292 20,38.6592593 C20,33.9580012 21.2316592,30.1728539 23.6950147,27.3037037 C26.1583701,24.4345536 29.7507095,23 34.4721408,23 L34.4721408,29.5333333 C30.8455342,29.5333333 29.0322581,31.8839271 29.0322581,36.5851852 L29.0322581,38.1407407 L35.601173,38.1407407 L35.601173,51 L22.1554252,51 Z M41.5542522,51 C40.1857214,46.782695 39.5014663,42.6691559 39.5014663,38.6592593 C39.5014663,33.9580012 40.7160191,30.1728539 43.1451613,27.3037037 C45.5743034,24.4345536 49.1495365,23 53.8709677,23 L53.8709677,29.5333333 C50.3127877,29.5333333 48.5337243,31.8839271 48.5337243,36.5851852 L48.5337243,38.1407407 L55,38.1407407 L55,51 L41.5542522,51 Z" id="“-copy-2" fill="#4C51F0" fill-rule="nonzero"></path>
    </g>
</svg>