<svg id="e771b8ad-babe-4bbe-8756-8c3ebb9720d9" data-name="Layer 1" xmlns="http://www.w3.org/2000/svg" width="187.139" height="187.139" viewBox="0 0 187.139 187.139"><title>theDONUT_standalone_tagline-spinner-outer_1</title><path d="M76.456,59.072A4.933,4.933,0,0,0,78.4,57.5a4.015,4.015,0,0,0,.75-2.116,4.958,4.958,0,0,0-1.984-4.115,3.857,3.857,0,0,0-2.112-.7,5.092,5.092,0,0,0-2.435.562l-3.165,1.531L73.292,60.6Zm-3.111-5.917a2.374,2.374,0,0,1,1.8-.211,2.509,2.509,0,0,1,1.441,2.979A2.39,2.39,0,0,1,75.3,57.2l-.752.363-1.954-4.04Z" fill="#3dc9fb"/><path d="M89.149,54.95a4.261,4.261,0,0,0,1.29-1.929,5.326,5.326,0,0,0-.828-4.763,4.294,4.294,0,0,0-1.863-1.374,4.686,4.686,0,0,0-4.524.786,4.287,4.287,0,0,0-1.291,1.923,5.331,5.331,0,0,0,.827,4.763,4.252,4.252,0,0,0,3.388,1.653,4.867,4.867,0,0,0,.842-.074A4.471,4.471,0,0,0,89.149,54.95Zm.072-2.294a2.986,2.986,0,0,1-.911,1.381,3.346,3.346,0,0,1-3.2.556,2.981,2.981,0,0,1-1.323-.992,4.308,4.308,0,0,1-.634-3.648,2.99,2.99,0,0,1,.91-1.382,3.349,3.349,0,0,1,3.2-.556,2.986,2.986,0,0,1,1.323.992,4.3,4.3,0,0,1,.634,3.649Z" fill="#fff"/><path d="M96.7,55.484c.112.009.222.012.328.012a2.922,2.922,0,0,0,1.251-.251,2.343,2.343,0,0,0,1.013-.866h0a2.575,2.575,0,0,0,.394-1.2,2.4,2.4,0,0,0-.291-1.465,2.512,2.512,0,0,0-.889-.88,10.578,10.578,0,0,0-1.334-.623,11.668,11.668,0,0,1-1.087-.5,1.731,1.731,0,0,1-.594-.527,1.378,1.378,0,0,1,.281-1.726A1.61,1.61,0,0,1,96.9,47.2a1.7,1.7,0,0,1,1.148.472,1.634,1.634,0,0,1,.463.926l.019.163,1.328.1-.017-.232a2.6,2.6,0,0,0-.81-1.71,3.189,3.189,0,0,0-2.049-.813,2.987,2.987,0,0,0-2.1.518,2.516,2.516,0,0,0-.612,3.111,2.5,2.5,0,0,0,.867.845,10.459,10.459,0,0,0,1.312.616,9.968,9.968,0,0,1,1.118.512,1.811,1.811,0,0,1,.612.559,1.286,1.286,0,0,1,.186.845,1.345,1.345,0,0,1-.458.962,1.515,1.515,0,0,1-1.163.3,1.963,1.963,0,0,1-.965-.3,1.671,1.671,0,0,1-.569-.617,1.742,1.742,0,0,1-.2-.712L95,52.566l-1.314-.1,0,.219a2.63,2.63,0,0,0,.392,1.348,2.891,2.891,0,0,0,1.059,1A3.72,3.72,0,0,0,96.7,55.484Z" fill="#fff"/><polygon points="107.132 56.442 103.478 55.388 104.296 52.55 107.591 53.5 107.891 52.456 104.597 51.507 105.404 48.705 109.058 49.759 109.366 48.692 104.477 47.282 101.932 56.112 106.82 57.52 107.132 56.442" fill="#fff"/><path d="M123.034,67.932a4.267,4.267,0,0,0,2.292.034,4.865,4.865,0,0,0,3.338-3.254,4.238,4.238,0,0,0,.021-2.289,4.743,4.743,0,0,0-3.177-3.248,4.262,4.262,0,0,0-2.3-.039,4.847,4.847,0,0,0-3.334,3.26,4.263,4.263,0,0,0-.012,2.3,4.578,4.578,0,0,0,1.172,2.028A4.528,4.528,0,0,0,123.034,67.932Zm-.164-5.811a2.4,2.4,0,0,1,1.556-.772,1.87,1.87,0,0,1,1.461.629,1.846,1.846,0,0,1,.592,1.47,2.424,2.424,0,0,1-.811,1.534,2.385,2.385,0,0,1-1.543.759,2.063,2.063,0,0,1-2.048-2.095A2.387,2.387,0,0,1,122.87,62.121Z" fill="#3dc9fb"/><polygon points="125.335 72.039 125.99 73.146 129.465 71.085 131.182 73.98 132.116 73.426 130.398 70.531 132.938 69.025 134.923 72.37 135.879 71.803 133.238 67.352 125.508 71.938 125.335 72.039" fill="#fff"/><polygon points="131.989 90.577 136.909 90.406 132.101 93.816 132.187 96.271 140.994 95.964 140.909 93.509 135.926 93.683 140.796 90.27 140.711 87.816 131.903 88.123 131.989 90.577" fill="#3dc9fb"/><polygon points="131.575 98.891 130.567 103.877 131.667 104.099 132.421 100.372 135.316 100.958 134.637 104.318 135.7 104.535 136.38 101.173 139.238 101.751 138.485 105.478 139.573 105.698 140.581 100.711 131.771 98.93 131.575 98.891" fill="#fff"/><polygon points="129.337 107.705 128.729 108.913 134.075 113.902 126.888 112.578 126.281 113.786 133.425 120.032 134.044 118.803 128.437 114.077 135.73 115.447 136.308 114.297 130.868 109.27 137.835 110.916 137.988 110.954 138.612 109.713 129.488 107.739 129.337 107.705" fill="#fff"/><path d="M127.669,121.127a2.5,2.5,0,0,0-1.2.161,10.451,10.451,0,0,0-1.3.653,10.175,10.175,0,0,1-1.093.564,1.872,1.872,0,0,1-.815.137,1.311,1.311,0,0,1-.782-.375,1.347,1.347,0,0,1-.473-.954,1.51,1.51,0,0,1,.477-1.1,1.979,1.979,0,0,1,.834-.573,1.647,1.647,0,0,1,.838-.067,1.749,1.749,0,0,1,.686.276l.144.1.889-.974-.176-.132a2.619,2.619,0,0,0-1.3-.522,2.889,2.889,0,0,0-1.439.216,3.689,3.689,0,0,0-1.319.954,3.155,3.155,0,0,0-.788,1.389,2.348,2.348,0,0,0,.059,1.332,2.571,2.571,0,0,0,.7,1.048,2.409,2.409,0,0,0,1.332.676,2.526,2.526,0,0,0,1.242-.158,10.573,10.573,0,0,0,1.314-.666,11.941,11.941,0,0,1,1.063-.547,1.646,1.646,0,0,1,.781-.143,1.377,1.377,0,0,1,1.184,1.285,1.64,1.64,0,0,1-.485,1.051,1.7,1.7,0,0,1-1.08.613,1.6,1.6,0,0,1-1.014-.207l-.14-.085-.9.984.193.129a2.563,2.563,0,0,0,1.455.444,3.065,3.065,0,0,0,.39-.026,3.182,3.182,0,0,0,1.9-1.112,2.979,2.979,0,0,0,.887-1.97,2.514,2.514,0,0,0-2.071-2.4Z" fill="#fff"/><path d="M110.435,130.174a3.11,3.11,0,0,0-1.685-.78,4.158,4.158,0,0,0-1.97.254,4.3,4.3,0,0,0-1.7,1.091,3.27,3.27,0,0,0-.844,1.707,4.153,4.153,0,0,0,.251,2.164l1.724,4.732,2.3-.836-1.725-4.733a1.742,1.742,0,0,1-.07-1.194,1.251,1.251,0,0,1,.814-.735,1.22,1.22,0,0,1,1.082.037,1.784,1.784,0,0,1,.7.97l1.724,4.733,2.3-.837-1.723-4.732A4.414,4.414,0,0,0,110.435,130.174Z" fill="#3dc9fb"/><path d="M101.1,136.768a2.488,2.488,0,0,0-1.011-.671,10.62,10.62,0,0,0-1.4-.361,10.633,10.633,0,0,1-1.2-.3,1.778,1.778,0,0,1-.7-.436,1.284,1.284,0,0,1-.34-.8,1.337,1.337,0,0,1,.272-1.03,1.535,1.535,0,0,1,1.085-.514,1.983,1.983,0,0,1,1,.119,1.654,1.654,0,0,1,.674.5,1.744,1.744,0,0,1,.335.66l.042.171,1.31-.147-.044-.216a2.642,2.642,0,0,0-.637-1.251,2.888,2.888,0,0,0-1.224-.786,3.76,3.76,0,0,0-1.622-.151,3.14,3.14,0,0,0-1.506.527,2.337,2.337,0,0,0-.835,1.04,2.576,2.576,0,0,0-.166,1.248,2.409,2.409,0,0,0,.557,1.386,2.527,2.527,0,0,0,1.038.7,10.339,10.339,0,0,0,1.427.364c.49.1.881.2,1.16.29a1.726,1.726,0,0,1,.682.408,1.38,1.38,0,0,1,.044,1.747,1.648,1.648,0,0,1-1.059.471,1.711,1.711,0,0,1-1.216-.251,1.62,1.62,0,0,1-.626-.824l-.049-.156-1.323.148.06.224a2.6,2.6,0,0,0,1.112,1.53,2.931,2.931,0,0,0,1.652.45,4.557,4.557,0,0,0,.513-.03,2.989,2.989,0,0,0,1.966-.9,2.515,2.515,0,0,0,.025-3.17Z" fill="#fff"/><polygon points="87.226 132.577 91.012 132.922 90.744 135.864 87.33 135.552 87.23 136.633 90.644 136.945 90.381 139.849 86.595 139.503 86.493 140.61 91.559 141.072 92.394 131.921 87.328 131.458 87.226 132.577" fill="#fff"/><polygon points="82.59 134.481 79.361 133.53 79.056 134.571 82.284 135.523 81.448 138.356 77.717 137.255 77.404 138.321 82.367 139.784 84.965 130.971 83.733 130.606 82.59 134.481" fill="#fff"/><path d="M75.053,127a3.279,3.279,0,0,0-2.6-.362,3.9,3.9,0,0,0-2.164,2.011l-2.68,4.828,1.113.618,2.679-4.83a2.837,2.837,0,0,1,1.422-1.423,1.952,1.952,0,0,1,1.627.222,1.992,1.992,0,0,1,1.059,1.271,2.781,2.781,0,0,1-.446,1.963l-2.68,4.829,1.113.618,2.68-4.83a3.893,3.893,0,0,0,.561-2.9A3.273,3.273,0,0,0,75.053,127Z" fill="#fff"/><polygon points="66.551 120.834 65.832 121.664 68.245 123.754 62.947 129.87 63.919 130.71 69.935 123.765 66.551 120.834" fill="#fff"/><polygon points="58.803 110.169 57.821 107.932 51.532 110.695 50.574 108.514 48.782 109.302 51.67 115.877 53.462 115.089 52.514 112.932 58.803 110.169" fill="#3dc9fb"/><path d="M51.011,104.782a5.587,5.587,0,0,0,.882-.072,5.019,5.019,0,0,0,2.3-.948,4.261,4.261,0,0,0,1.409-1.844,4.681,4.681,0,0,0-.714-4.534,4.259,4.259,0,0,0-1.909-1.321,5.34,5.34,0,0,0-4.774.753,4.264,4.264,0,0,0-1.4,1.843,4.676,4.676,0,0,0,.715,4.534,4.277,4.277,0,0,0,1.9,1.322A4.731,4.731,0,0,0,51.011,104.782ZM52.6,97.276a2.991,2.991,0,0,1,1.367.932,3.34,3.34,0,0,1,.506,3.211,2.976,2.976,0,0,1-1.014,1.308,4.3,4.3,0,0,1-3.656.576,2.967,2.967,0,0,1-1.367-.933h0a3.346,3.346,0,0,1-.506-3.21,3,3,0,0,1,1.013-1.308,3.925,3.925,0,0,1,1.764-.7,4.752,4.752,0,0,1,.73-.059A3.573,3.573,0,0,1,52.6,97.276Z" fill="#fff"/><path d="M55.1,92.838,55.427,90a5.7,5.7,0,0,0-.252-2.648,3.807,3.807,0,0,0-1.406-1.834,5.078,5.078,0,0,0-2.365-.834,4.466,4.466,0,0,0-3.488.874,4.924,4.924,0,0,0-1.617,3.4l-.325,2.837,8.93,1.021Zm-3.843-6.877a3.377,3.377,0,0,1,2.4,1.194,3.7,3.7,0,0,1,.586,2.774l-.172,1.5-6.786-.775.171-1.5a3.715,3.715,0,0,1,1.2-2.571A3.378,3.378,0,0,1,51.259,85.961Z" fill="#fff"/><path d="M56.851,82.33l-1.715-1.512,1.333-3.476,2.284.034.492-1.284-9.608-.054-.452,1.179L56.363,83.6Zm-1.553-5-1.045,2.724-3.17-2.79Z" fill="#fff"/><polygon points="55.651 64.752 54.855 65.981 57.204 70.058 52.522 69.584 51.726 70.813 58.053 71.366 61.056 73.31 61.755 72.232 58.751 70.287 55.651 64.752" fill="#fff"/><path d="M117,56.009a1.226,1.226,0,1,0-1.226,1.226A1.226,1.226,0,0,0,117,56.009Z" fill="#fff"/><path d="M134.953,79.507a1.226,1.226,0,1,0,1.226,1.226A1.226,1.226,0,0,0,134.953,79.507Z" fill="#fff"/><circle cx="117.825" cy="128.69" r="1.226" fill="#fff"/><path d="M59.881,117.965a1.226,1.226,0,1,0,1.226,1.226A1.226,1.226,0,0,0,59.881,117.965Z" fill="#fff"/><path d="M64.437,62.573a1.226,1.226,0,1,0-1.225-1.226A1.226,1.226,0,0,0,64.437,62.573Z" fill="#fff"/></svg>