<svg id="e3bad277-b8b6-4141-b983-2e9ac6a2de81" data-name="Layer 1" xmlns="http://www.w3.org/2000/svg" width="187.139" height="187.139" viewBox="0 0 187.139 187.139"><title>theDONUT_standalone_tagline-spinner-outer</title><path d="M52.532,23.6,58.51,33.606l-1.008.6L51.524,24.2Z" fill="#fff"/><path d="M63.841,21.759a4.018,4.018,0,0,1,2.124,2.252l2.2,4.774-1.035.478-2.17-4.7a3.157,3.157,0,0,0-1.622-1.737,2.667,2.667,0,0,0-2.176.139,2.792,2.792,0,0,0-1.594,1.693,3.637,3.637,0,0,0,.342,2.656l2.011,4.353-1.066.492-3.785-8.2,1.065-.492.93,2.012a3.134,3.134,0,0,1,.4-2.133A3.656,3.656,0,0,1,61.1,21.922,3.426,3.426,0,0,1,63.841,21.759Z" fill="#fff"/><path d="M69.277,16.885a2.093,2.093,0,0,0,.006,1.659l.113.345,2.155-.7.316.975-2.156.7,2.466,7.613-1.1.358-2.465-7.615-1.275.413-.315-.975,1.273-.413-.136-.425a2.944,2.944,0,0,1,.083-2.425A3.544,3.544,0,0,1,70.5,14.935l.316.976A2.525,2.525,0,0,0,69.277,16.885Z" fill="#fff"/><path d="M80.817,16.535A3.961,3.961,0,0,1,82.691,17.8a5.058,5.058,0,0,1,1.041,2.316,5,5,0,0,1-.1,2.529,4.022,4.022,0,0,1-1.259,1.88,4.677,4.677,0,0,1-2.156.993,4.738,4.738,0,0,1-2.379-.107A4.053,4.053,0,0,1,75.95,24.14a4.946,4.946,0,0,1-1.046-2.3,4.983,4.983,0,0,1,.1-2.539,4,4,0,0,1,1.275-1.882,4.788,4.788,0,0,1,2.166-.988A4.736,4.736,0,0,1,80.817,16.535ZM77.093,18.13a3,3,0,0,0-.968,1.427,4.034,4.034,0,0,0-.069,2.061,3.992,3.992,0,0,0,.838,1.875,3,3,0,0,0,1.432.95,3.516,3.516,0,0,0,1.7.072,3.433,3.433,0,0,0,1.522-.7,3.009,3.009,0,0,0,.962-1.418,3.977,3.977,0,0,0,.07-2.053,4.018,4.018,0,0,0-.838-1.882,3,3,0,0,0-1.426-.96,3.446,3.446,0,0,0-1.675-.078A3.532,3.532,0,0,0,77.093,18.13Z" fill="#fff"/><path d="M88.739,15.6a4.055,4.055,0,0,1,2.091-.676l.087,1.254-.38.027a3.3,3.3,0,0,0-2.112.85,2.794,2.794,0,0,0-.7,2.344l.342,4.933-1.171.081-.625-9.007,1.172-.081.129,1.864A3.041,3.041,0,0,1,88.739,15.6Z" fill="#fff"/><path d="M107.309,16.882a4.065,4.065,0,0,1,.683,3.014l-.5,5.234-1.152-.109.492-5.152a3.219,3.219,0,0,0-.487-2.289,2.466,2.466,0,0,0-1.844-.957,2.667,2.667,0,0,0-2.156.658,3.658,3.658,0,0,0-1.014,2.444l-.456,4.774L99.74,24.39l.492-5.152a3.219,3.219,0,0,0-.488-2.289,2.464,2.464,0,0,0-1.843-.957,2.67,2.67,0,0,0-2.156.658,3.651,3.651,0,0,0-1.014,2.444l-.456,4.774-1.169-.113.859-8.986,1.168.111-.2,2.14a3.015,3.015,0,0,1,1.357-1.606,3.51,3.51,0,0,1,2.056-.393,3.383,3.383,0,0,1,1.982.82,3.249,3.249,0,0,1,1.008,1.957,3.335,3.335,0,0,1,1.444-1.713,3.509,3.509,0,0,1,2.118-.438A3.357,3.357,0,0,1,107.309,16.882Z" fill="#fff"/><path d="M118.194,19.641a3.606,3.606,0,0,1,.719,2.193l.727-2.371,1.091.334-2.648,8.631-1.091-.335.728-2.371a3.592,3.592,0,0,1-1.825,1.412,3.843,3.843,0,0,1-2.445-.006,4.281,4.281,0,0,1-1.93-1.18,3.837,3.837,0,0,1-.966-1.984,5.317,5.317,0,0,1,.206-2.5A5.343,5.343,0,0,1,112,19.255a3.8,3.8,0,0,1,1.9-1.095,4.317,4.317,0,0,1,2.265.115A3.853,3.853,0,0,1,118.194,19.641Zm-4.661-.089a3.678,3.678,0,0,0-1.651,2.252,3.67,3.67,0,0,0,.1,2.79,3.2,3.2,0,0,0,2.047,1.641,3.386,3.386,0,0,0,1.783.08,3.152,3.152,0,0,0,1.525-.855,4.3,4.3,0,0,0,1.11-3.621,3.142,3.142,0,0,0-.782-1.563,3.384,3.384,0,0,0-1.521-.934A3.212,3.212,0,0,0,113.533,19.552Z" fill="#fff"/><path d="M124.718,30.3l-.422.933-.979-.442a2.728,2.728,0,0,1-1.523-1.369,2.819,2.819,0,0,1,.275-2.172l2.186-4.836L123,21.843l.416-.919,1.25.566.941-2.079,1.069.483-.939,2.079L128,23l-.415.919-2.26-1.022-2.194,4.852a1.881,1.881,0,0,0-.224,1.341,1.677,1.677,0,0,0,.967.828Z" fill="#fff"/><path d="M131.6,24.908l-4.322,7.927-1.031-.562,4.322-7.927Zm.506-3.434a.9.9,0,0,1,.647.109.867.867,0,0,1,.435.481.755.755,0,0,1-.074.619.733.733,0,0,1-.472.383.867.867,0,0,1-.641-.1.9.9,0,0,1-.441-.486.724.724,0,0,1,.058-.608A.744.744,0,0,1,132.108,21.474Z" fill="#fff"/><path d="M139.89,30.718a3.957,3.957,0,0,1,.4,2.228A5.552,5.552,0,0,1,137.476,37a4.038,4.038,0,0,1-2.226.409,5.035,5.035,0,0,1-3.8-2.633,4.045,4.045,0,0,1-.406-2.244,5.456,5.456,0,0,1,2.807-4.049,3.991,3.991,0,0,1,2.239-.4,4.789,4.789,0,0,1,2.218.864A4.737,4.737,0,0,1,139.89,30.718Zm-3.739-1.555a2.979,2.979,0,0,0-1.7.3,4.033,4.033,0,0,0-1.525,1.387,3.985,3.985,0,0,0-.759,1.908,3,3,0,0,0,.318,1.69,3.5,3.5,0,0,0,1.132,1.267,3.439,3.439,0,0,0,1.565.6,3.012,3.012,0,0,0,1.686-.3,3.97,3.97,0,0,0,1.521-1.381,4.035,4.035,0,0,0,.765-1.915,3,3,0,0,0-.307-1.69,3.449,3.449,0,0,0-1.112-1.255A3.521,3.521,0,0,0,136.151,29.163Z" fill="#fff"/><path d="M149.241,39.366a4.022,4.022,0,0,1-1.307,2.806l-3.62,3.814-.827-.786,3.562-3.754a3.157,3.157,0,0,0,1.015-2.149,2.672,2.672,0,0,0-.935-1.969,2.8,2.8,0,0,0-2.163-.857,3.644,3.644,0,0,0-2.34,1.3l-3.3,3.479-.852-.809,6.216-6.548.851.808-1.525,1.607a3.133,3.133,0,0,1,2.129-.418,3.634,3.634,0,0,1,1.932.99A3.426,3.426,0,0,1,149.241,39.366Z" fill="#fff"/><path d="M156.923,47.249l-7.244,5.387-.7-.941,7.244-5.389Zm1.9-2.907a.9.9,0,0,1,.543.37.869.869,0,0,1,.192.619.753.753,0,0,1-.326.531.729.729,0,0,1-.589.15.862.862,0,0,1-.538-.363.887.887,0,0,1-.2-.626.716.716,0,0,1,.307-.527A.738.738,0,0,1,158.822,44.342Z" fill="#fff"/><path d="M161.131,54.879a3.329,3.329,0,0,1-1.223,2.026l-.578-.945a2.237,2.237,0,0,0,.86-1.369,2.355,2.355,0,0,0-.38-1.714,2.06,2.06,0,0,0-1.1-.964,1.468,1.468,0,0,0-1.257.177,1.208,1.208,0,0,0-.58.733,2.082,2.082,0,0,0-.011.947,10.648,10.648,0,0,0,.369,1.285,11.752,11.752,0,0,1,.43,1.608,2.578,2.578,0,0,1-.1,1.274,2.1,2.1,0,0,1-.961,1.091,2.211,2.211,0,0,1-1.921.234,3.155,3.155,0,0,1-1.693-1.455,4.028,4.028,0,0,1-.672-2.573,3.076,3.076,0,0,1,1.186-2.1l.586.959a2.129,2.129,0,0,0-.836,1.422,2.794,2.794,0,0,0,.478,1.86,1.887,1.887,0,0,0,1.079.91,1.513,1.513,0,0,0,1.238-.194,1.294,1.294,0,0,0,.618-.766,2.085,2.085,0,0,0,.017-.97,12.913,12.913,0,0,0-.377-1.329,11.948,11.948,0,0,1-.42-1.575,2.5,2.5,0,0,1,.092-1.229,1.989,1.989,0,0,1,.921-1.047,2.215,2.215,0,0,1,1.946-.24,3.321,3.321,0,0,1,1.725,1.523A3.471,3.471,0,0,1,161.131,54.879Z" fill="#fff"/><path d="M168.1,70.223a3.824,3.824,0,0,1-1.02,1.937,5.915,5.915,0,0,1-4.647,1.635,3.859,3.859,0,0,1-2.018-.877,4.239,4.239,0,0,1-1.255-1.872,3.837,3.837,0,0,1-.108-2.452,3.614,3.614,0,0,1,1.339-1.873l-6.363,2.24-.385-1.092,12.541-4.412.384,1.091-2.34.824a3.6,3.6,0,0,1,2.218.622,3.834,3.834,0,0,1,1.45,1.978A4.278,4.278,0,0,1,168.1,70.223Zm-2.271-3.688a3.084,3.084,0,0,0-1.59-.711,4.387,4.387,0,0,0-3.573,1.257,3.081,3.081,0,0,0-.8,1.549,3.368,3.368,0,0,0,.153,1.779A3.2,3.2,0,0,0,161.75,72.4a4.278,4.278,0,0,0,4.976-1.751,3.2,3.2,0,0,0,.1-2.63A3.372,3.372,0,0,0,165.831,66.535Z" fill="#fff"/><path d="M170.77,81.872a3.973,3.973,0,0,1-1.294,1.855,5.058,5.058,0,0,1-2.33,1.01,5,5,0,0,1-2.528-.131,4.029,4.029,0,0,1-1.862-1.284,5.028,5.028,0,0,1-.823-4.547,4.05,4.05,0,0,1,1.3-1.874,5.463,5.463,0,0,1,4.848-.878,3.988,3.988,0,0,1,1.866,1.3,5.1,5.1,0,0,1,.824,4.548Zm-1.544-3.745a2.984,2.984,0,0,0-1.414-.989,4.039,4.039,0,0,0-2.06-.1,3.972,3.972,0,0,0-1.885.812,2.994,2.994,0,0,0-.97,1.419,3.522,3.522,0,0,0-.1,1.7,3.437,3.437,0,0,0,.681,1.532,3.011,3.011,0,0,0,1.4.981,4.57,4.57,0,0,0,3.945-.715,3,3,0,0,0,.98-1.412,3.442,3.442,0,0,0,.1-1.674A3.522,3.522,0,0,0,169.226,78.127Z" fill="#fff"/><path d="M172.15,99.729l-9.071-2.515-.019-1.224,7.627-2.835-7.716-2.62-.02-1.207,8.985-2.809.018,1.174-7.785,2.276,7.864,2.585.02,1.19L164.277,96.6l7.854,2.006Z" fill="#fff"/><path d="M163.117,107.59a2.454,2.454,0,0,0,1.463,1.256l-.205,1.206a3.673,3.673,0,0,1-2.068-1.744,4.426,4.426,0,0,1-.4-2.953,4.656,4.656,0,0,1,.929-2.165,3.883,3.883,0,0,1,1.844-1.271,5.714,5.714,0,0,1,4.874.829,3.884,3.884,0,0,1,1.319,1.809,4.665,4.665,0,0,1,.163,2.351,4.548,4.548,0,0,1-.931,2.165,3.77,3.77,0,0,1-1.706,1.2,4.148,4.148,0,0,1-2.073.159,4.99,4.99,0,0,1-.821-.207l1.254-7.368a3.816,3.816,0,0,0-1.962.145,2.841,2.841,0,0,0-1.314.975,3.435,3.435,0,0,0-.622,1.487A3.348,3.348,0,0,0,163.117,107.59Zm6.9-2.483a2.865,2.865,0,0,0-.9-1.352,3.8,3.8,0,0,0-1.769-.8l-1.07,6.293a3.334,3.334,0,0,0,1.9-.046,2.711,2.711,0,0,0,1.3-.952,3.512,3.512,0,0,0,.625-1.5A3.549,3.549,0,0,0,170.013,105.107Z" fill="#fff"/><path d="M168.228,116.607a4.041,4.041,0,0,1-.105,2.2l-1.2-.36.11-.364a3.315,3.315,0,0,0-.053-2.278,2.792,2.792,0,0,0-1.947-1.479l-4.737-1.417.336-1.125,8.65,2.588-.336,1.124-1.79-.535A3.049,3.049,0,0,1,168.228,116.607Z" fill="#fff"/><path d="M159.743,119.18l-1.393-.522.54-1.44,1.393.523Z" fill="#fff"/><path d="M154.7,147.2l-9.311-6.932L147.077,138l5.824,4.334-4.323-6.351,1.461-1.963,7.347,2.315-5.836-4.344,1.689-2.269,9.31,6.931-2.063,2.772-8.371-2.294,4.639,7.308Z" fill="#fff"/><path d="M148.242,150.16l-6.53-6.52,2-2,6.53,6.52Zm4.449.727a1.991,1.991,0,0,1-1.729,1.732,1.382,1.382,0,0,1-1.082-.426,1.363,1.363,0,0,1-.416-1.07,1.991,1.991,0,0,1,1.73-1.732,1.361,1.361,0,0,1,1.069.414A1.379,1.379,0,0,1,152.691,150.887Z" fill="#fff"/><path d="M141.536,155.475a2.887,2.887,0,0,1-1.692-.327l1.035,1.31-2.2,1.743-5.689-7.2a5.282,5.282,0,0,1-1.051-2.131,3.809,3.809,0,0,1,.173-2.235,4.9,4.9,0,0,1,1.619-2.058,5.233,5.233,0,0,1,3.224-1.293,4,4,0,0,1,2.83,1.167l-2.193,1.732a1.4,1.4,0,0,0-1.016-.313,2.2,2.2,0,0,0-1.163.517,1.98,1.98,0,0,0-.795,1.273,2.117,2.117,0,0,0,.577,1.6l1,1.272a2.883,2.883,0,0,1,.072-1.722,3.339,3.339,0,0,1,1.13-1.5,3.73,3.73,0,0,1,1.956-.818,3.9,3.9,0,0,1,2.136.409,6.356,6.356,0,0,1,3.121,3.95,3.911,3.911,0,0,1-.1,2.166,3.722,3.722,0,0,1-1.249,1.714A3.327,3.327,0,0,1,141.536,155.475Zm.252-3.508a2.744,2.744,0,0,0-2.049-2.594,2.076,2.076,0,0,0-2.287,1.827,2.647,2.647,0,0,0,2.035,2.576,1.928,1.928,0,0,0,1.522-.434A1.907,1.907,0,0,0,141.788,151.967Z" fill="#fff"/><path d="M127.948,163.386a4.246,4.246,0,0,1-2.23-2.09l-2.6-4.685,2.472-1.372,2.44,4.395a2.042,2.042,0,0,0,1.128,1.029,1.7,1.7,0,0,0,1.388-.175,1.766,1.766,0,0,0,.928-1.14,2.2,2.2,0,0,0-.314-1.6l-2.375-4.28,2.473-1.372,5.938,10.7-2.472,1.372-2.279-4.106a3.042,3.042,0,0,1-.4,1.716,3.466,3.466,0,0,1-1.38,1.314A3.191,3.191,0,0,1,127.948,163.386Z" fill="#fff"/><path d="M117.222,161.522l-.888-2.263,1.185-.464a3.652,3.652,0,0,1,2.64-.175,3.393,3.393,0,0,1,1.809,2.14l1.238,3.156,1.155-.453.87,2.216-1.155.453.829,2.109-2.632,1.033-.828-2.108-1.724.676-.87-2.216,1.724-.677-1.257-3.2a1.037,1.037,0,0,0-.486-.627,1.067,1.067,0,0,0-.779.075Z" fill="#fff"/><path d="M107.52,170.641a2.88,2.88,0,0,1-1.348-1.074l.311,1.641-2.762.522-1.715-9.065,2.762-.523.31,1.641a2.873,2.873,0,0,1,.863-1.492,3.341,3.341,0,0,1,1.7-.81,3.733,3.733,0,0,1,2.113.182,3.894,3.894,0,0,1,1.7,1.351,6.346,6.346,0,0,1,.936,4.948,3.914,3.914,0,0,1-1.093,1.873,3.742,3.742,0,0,1-1.9.94A3.341,3.341,0,0,1,107.52,170.641Zm1.848-2.991a2.743,2.743,0,0,0-.614-3.25,2.078,2.078,0,0,0-2.873.561,2.646,2.646,0,0,0,.611,3.225,1.918,1.918,0,0,0,1.549.32A1.9,1.9,0,0,0,109.368,167.65Z" fill="#fff"/><path d="M94.093,171.522a3.8,3.8,0,0,1-1.4-2.262l2.643-.1a1.467,1.467,0,0,0,.555.864,1.575,1.575,0,0,0,1.028.282,1.1,1.1,0,0,0,.719-.234.725.725,0,0,0,.226-.6.689.689,0,0,0-.48-.627,7.13,7.13,0,0,0-1.446-.374,14.274,14.274,0,0,1-1.754-.436,2.886,2.886,0,0,1-1.206-.789,2.314,2.314,0,0,1-.556-1.534,2.389,2.389,0,0,1,.375-1.421,2.842,2.842,0,0,1,1.2-1.007,4.845,4.845,0,0,1,1.9-.421,4.929,4.929,0,0,1,3.022.71,3.486,3.486,0,0,1,1.463,2.309l-2.726.106a1.222,1.222,0,0,0-.54-.889,1.892,1.892,0,0,0-1.143-.27,1.052,1.052,0,0,0-.719.252.747.747,0,0,0-.224.595.7.7,0,0,0,.48.668,8.414,8.414,0,0,0,1.5.381,11.709,11.709,0,0,1,1.7.4,2.784,2.784,0,0,1,1.172.757,2.236,2.236,0,0,1,.537,1.494,2.473,2.473,0,0,1-.863,2.044,4.109,4.109,0,0,1-2.631.871A4.227,4.227,0,0,1,94.093,171.522Z" fill="#fff"/><path d="M71.992,169.588l4.014-8.637,3.105.578.508,6.386,2.791-5.771,3.105.578.635,9.5-2.781-.518.015-6.759-2.907,6.22-2.959-.551L77,163.743l-2.424,6.327Z" fill="#fff"/><path d="M63.117,160.691l5.98,2.28a2.138,2.138,0,0,0,.039-1.586,1.707,1.707,0,0,0-.981-.861,1.67,1.67,0,0,0-1.085-.078,1.472,1.472,0,0,0-.8.562l-2.8-1.066a3.906,3.906,0,0,1,1.363-1.347,4.225,4.225,0,0,1,1.882-.574,5.308,5.308,0,0,1,4.163,1.73,4.066,4.066,0,0,1,.95,2.124,5.084,5.084,0,0,1-.339,2.56,5.148,5.148,0,0,1-1.447,2.147,4.03,4.03,0,0,1-2.121.943,5.43,5.43,0,0,1-4.514-1.714,3.965,3.965,0,0,1-.943-2.05,4.69,4.69,0,0,1,.3-2.389A3.882,3.882,0,0,1,63.117,160.691Zm2.141,3.551a1.8,1.8,0,0,0,1.005.87,1.847,1.847,0,0,0,1.37.026,1.93,1.93,0,0,0,1.024-1.06l-3.368-1.284A1.7,1.7,0,0,0,65.258,164.242Z" fill="#fff"/><path d="M54.9,165.548l5.61-10.874,2.513,1.3-5.611,10.874Z" fill="#fff"/><path d="M49.709,162.5l6.4-10.431,2.41,1.478-6.4,10.431Z" fill="#fff"/><path d="M34.822,144.919a4.125,4.125,0,0,1,1.316-2.782l3.708-3.866,2.029,1.945L38.4,143.844a1.889,1.889,0,0,0-.605,1.311,1.7,1.7,0,0,0,.587,1.239,1.736,1.736,0,0,0,1.322.545,2.058,2.058,0,0,0,1.365-.718l3.387-3.532,2.041,1.957-3.479,3.628a1.9,1.9,0,0,0-.61,1.305,1.672,1.672,0,0,0,.581,1.233,1.781,1.781,0,0,0,1.322.557,2.029,2.029,0,0,0,1.376-.719l3.388-3.532,2.041,1.958-6.387,6.658-2.041-1.957,1.088-1.134a2.757,2.757,0,0,1-1.653.111,3.382,3.382,0,0,1-1.58-.9,3.561,3.561,0,0,1-1.01-1.645,3.062,3.062,0,0,1,.084-1.856,3.7,3.7,0,0,1-1.9.081,3.79,3.79,0,0,1-2.892-3.518Z" fill="#fff"/><path d="M28.559,137.249A2.877,2.877,0,0,1,29,135.583l-1.378.945-1.589-2.318,7.608-5.22,1.59,2.318-1.377.945a2.882,2.882,0,0,1,1.713.188,3.354,3.354,0,0,1,1.425,1.229,3.732,3.732,0,0,1,.684,2.006,3.9,3.9,0,0,1-.552,2.1,6.346,6.346,0,0,1-4.152,2.848,3.9,3.9,0,0,1-2.154-.247,3.724,3.724,0,0,1-1.625-1.361A3.329,3.329,0,0,1,28.559,137.249Zm3.482.488a2.747,2.747,0,0,0,2.728-1.87,2.075,2.075,0,0,0-1.669-2.4,2.645,2.645,0,0,0-2.707,1.856,1.925,1.925,0,0,0,.33,1.548A1.9,1.9,0,0,0,32.041,137.737Z" fill="#fff"/><path d="M30.228,122.134l-2.342,4.184,3.534-1.693,1.222,2.549-11.035,5.287-1.221-2.55,6.054-2.9-4.533-.889-1.436-3,5.768,1.362,2.517-5.423Z" fill="#fff"/><path d="M21.911,110.829l1.877,6.118A2.139,2.139,0,0,0,25.064,116a1.709,1.709,0,0,0,.076-1.3,1.668,1.668,0,0,0-.607-.9,1.466,1.466,0,0,0-.934-.284l-.877-2.861a3.914,3.914,0,0,1,1.9.247,4.207,4.207,0,0,1,1.61,1.132,5.306,5.306,0,0,1,1.2,4.347,4.061,4.061,0,0,1-1.091,2.054,5.09,5.09,0,0,1-2.227,1.307,5.165,5.165,0,0,1-2.583.179,4.031,4.031,0,0,1-2.048-1.093,5.433,5.433,0,0,1-1.424-4.614,3.96,3.96,0,0,1,1.037-2,4.7,4.7,0,0,1,2.069-1.232A3.883,3.883,0,0,1,21.911,110.829ZM20.427,114.7a1.8,1.8,0,0,0-.068,1.326,1.851,1.851,0,0,0,.821,1.1,1.936,1.936,0,0,0,1.466.155l-1.058-3.446A1.7,1.7,0,0,0,20.427,114.7Z" fill="#fff"/><path d="M12.111,105.694a1.989,1.989,0,0,1-.323-2.426,1.381,1.381,0,0,1,1-.6,1.359,1.359,0,0,1,1.1.32,1.988,1.988,0,0,1,.322,2.427,1.361,1.361,0,0,1-.98.6A1.378,1.378,0,0,1,12.111,105.694Zm3.285-3.088,9.146-1.215.372,2.8-9.146,1.214Z" fill="#fff"/><path d="M21.638,94.044l2.428-.109.056,1.272a3.66,3.66,0,0,1-.687,2.555,3.4,3.4,0,0,1-2.611,1.019l-3.387.151.055,1.24-2.378.106-.055-1.239-2.264.1-.126-2.825,2.263-.1-.083-1.85,2.379-.107.083,1.851,3.435-.154a1.034,1.034,0,0,0,.75-.257,1.062,1.062,0,0,0,.182-.761Z" fill="#fff"/><path d="M16.58,81.252a3.811,3.811,0,0,1,2.461-1.016l-.329,2.625a1.462,1.462,0,0,0-.943.406,1.584,1.584,0,0,0-.446.969,1.114,1.114,0,0,0,.114.748.721.721,0,0,0,.552.318.686.686,0,0,0,.7-.37,7.106,7.106,0,0,0,.6-1.366,14.349,14.349,0,0,1,.717-1.659,2.879,2.879,0,0,1,.975-1.062,2.315,2.315,0,0,1,1.6-.3,2.383,2.383,0,0,1,1.341.6,2.825,2.825,0,0,1,.8,1.35,4.833,4.833,0,0,1,.106,1.946,4.931,4.931,0,0,1-1.193,2.866,3.489,3.489,0,0,1-2.518,1.068l.34-2.707a1.233,1.233,0,0,0,.966-.387,1.9,1.9,0,0,0,.452-1.085,1.053,1.053,0,0,0-.131-.75.754.754,0,0,0-.55-.319.708.708,0,0,0-.739.366,8.564,8.564,0,0,0-.619,1.414,11.624,11.624,0,0,1-.669,1.615,2.766,2.766,0,0,1-.937,1.032,2.235,2.235,0,0,1-1.562.288,2.474,2.474,0,0,1-1.876-1.185,4.1,4.1,0,0,1-.43-2.738A4.233,4.233,0,0,1,16.58,81.252Z" fill="#f84faa"/><path d="M20.435,63.63l8.131,4.96-.924,3.021-6.4-.213,5.419,3.422-.923,3.02L16.221,77.4l.827-2.7,6.715.775-5.854-3.59.881-2.877,6.89.257-6.015-3.119Z" fill="#f84faa"/><path d="M30.28,55.805l-2.939,5.684a2.14,2.14,0,0,0,1.572.218,1.707,1.707,0,0,0,.966-.878,1.667,1.667,0,0,0,.2-1.071,1.468,1.468,0,0,0-.468-.856l1.374-2.658a3.9,3.9,0,0,1,1.185,1.506,4.231,4.231,0,0,1,.359,1.935,5.311,5.311,0,0,1-2.188,3.942,4.078,4.078,0,0,1-2.217.706,5.656,5.656,0,0,1-4.476-2.306,4.012,4.012,0,0,1-.7-2.213,5.427,5.427,0,0,1,2.209-4.293,3.988,3.988,0,0,1,2.144-.707,4.706,4.706,0,0,1,2.34.568A3.947,3.947,0,0,1,30.28,55.805Zm-3.769,1.728a1.793,1.793,0,0,0-.978.9,1.854,1.854,0,0,0-.181,1.359,1.942,1.942,0,0,0,.939,1.136l1.656-3.2A1.7,1.7,0,0,0,26.511,57.533Z" fill="#f84faa"/><path d="M36.607,46.82l-3.752,5.185a2.142,2.142,0,0,0,1.523.448,1.7,1.7,0,0,0,1.085-.725A1.675,1.675,0,0,0,35.82,50.7a1.462,1.462,0,0,0-.337-.917l1.755-2.424a3.917,3.917,0,0,1,.948,1.665,4.229,4.229,0,0,1,.066,1.967A5.311,5.311,0,0,1,35.5,54.564a4.075,4.075,0,0,1-2.3.368,5.084,5.084,0,0,1-2.384-.991,5.143,5.143,0,0,1-1.7-1.954,4.028,4.028,0,0,1-.361-2.292,5.433,5.433,0,0,1,2.823-3.917,3.966,3.966,0,0,1,2.225-.38,4.7,4.7,0,0,1,2.229.909A3.915,3.915,0,0,1,36.607,46.82Zm-3.985,1.148a1.8,1.8,0,0,0-1.1.746,1.847,1.847,0,0,0-.381,1.316,1.939,1.939,0,0,0,.76,1.264l2.113-2.921A1.7,1.7,0,0,0,32.622,47.968Z" fill="#f84faa"/><path d="M42.928,42.483,44.7,44.142l-.868.931a3.665,3.665,0,0,1-2.307,1.3,3.4,3.4,0,0,1-2.555-1.153L36.5,42.9l-.846.906-1.741-1.625.847-.906L33.1,39.732l1.93-2.067,1.656,1.547,1.264-1.355,1.74,1.625-1.264,1.355,2.514,2.346a1.042,1.042,0,0,0,.708.357,1.075,1.075,0,0,0,.671-.4Z" fill="#f84faa"/><path d="M46.007,39.129l1.9,2.09-2.164,1.97-1.9-2.091Z" fill="#f84faa"/></svg>